<?xml version="1.0" encoding="UTF-8" standalone="no"?>
<!DOCTYPE svg PUBLIC "-//W3C//DTD SVG 1.1//EN" "http://www.w3.org/Graphics/SVG/1.1/DTD/svg11.dtd">
<svg xmlns:xl="http://www.w3.org/1999/xlink" xmlns:dc="http://purl.org/dc/elements/1.1/" version="1.1" xmlns="http://www.w3.org/2000/svg" viewBox="1390 142 1221 603" width="1221" height="603">
  <defs/>
  <g id="248373204_Image_resize_needed" stroke-dasharray="none" fill="none" fill-opacity="1" stroke="none" stroke-opacity="1">
    <title>248373204_Image resize needed</title>
    <g id="248373204_Image_resize_needed_Layer_1">
      <title>Layer 1</title>
      <g id="Group_148">
        <g id="Group_145">
          <g id="Group_123">
            <g id="Graphic_125">
              <title>Path-2</title>
              <path d="M 2412.8994 224.99662 L 2228.3994 224.99662 L 2224.7994 224.89662 L 2221.2994 224.39662 L 2217.8994 223.49662 L 2214.6994 222.39662 L 2211.4994 220.99662 L 2208.5994 219.29662 L 2205.7994 217.39662 L 2203.1994 215.19662 L 2200.7994 212.79662 L 2198.5994 210.19662 L 2196.5994 207.39662 L 2194.9994 204.39662 L 2193.4994 201.29662 L 2192.3994 197.99662 L 2191.5994 194.59662 L 2191.0994 191.09662 L 2190.8994 187.49662 L 2191.0994 183.89662 L 2191.5994 180.39662 L 2192.3994 176.99662 L 2193.4994 173.69662 L 2194.9994 170.59662 L 2196.5994 167.59662 L 2198.5994 164.89662 L 2200.7994 162.19662 L 2203.1994 159.79662 L 2205.7994 157.69662 L 2208.5994 155.69662 L 2211.4994 153.99662 L 2214.6994 152.59662 L 2217.8994 151.49662 L 2221.2994 150.69662 L 2224.7994 150.19662 L 2228.3994 149.99662 L 2412.8994 149.99662 L 2416.4994 150.19662 L 2419.9994 150.69662 L 2423.3994 151.49662 L 2426.6994 152.59662 L 2429.7994 153.99662 L 2432.7994 155.69662 L 2435.5994 157.69662 L 2438.1994 159.79662 L 2440.5994 162.19662 L 2442.6994 164.89662 L 2444.6994 167.59662 L 2446.3994 170.59662 L 2447.7994 173.69662 L 2448.8994 176.99662 L 2449.6994 180.39662 L 2450.1994 183.89662 L 2450.3994 187.49662 L 2450.1994 191.09662 L 2449.6994 194.59662 L 2448.8994 197.99662 L 2447.7994 201.29662 L 2446.3994 204.39662 L 2444.6994 207.39662 L 2442.6994 210.19662 L 2440.5994 212.79662 L 2438.1994 215.19662 L 2435.5994 217.39662 L 2432.7994 219.29662 L 2429.7994 220.99662 L 2426.6994 222.39662 L 2423.3994 223.49662 L 2419.9994 224.39662 L 2416.4994 224.89662 Z" fill="#ea4335"/>
            </g>
            <g id="Graphic_124">
              <title>Path-3</title>
              <path d="M 2412.8994 225.4314 L 2228.3994 225.4314 L 2224.7994 225.3314 L 2221.2994 224.8314 L 2217.8994 223.9314 L 2214.6994 222.8314 L 2211.4994 221.4314 L 2208.5994 219.7314 L 2205.7994 217.8314 L 2203.1994 215.6314 L 2200.7994 213.2314 L 2198.5994 210.6314 L 2196.5994 207.8314 L 2194.9994 204.8314 L 2193.4994 201.7314 L 2192.3994 198.4314 L 2191.5994 195.0314 L 2191.0994 191.5314 L 2190.8994 187.9314 L 2191.0994 184.3314 L 2191.5994 180.8314 L 2192.3994 177.4314 L 2193.4994 174.1314 L 2194.9994 171.0314 L 2196.5994 168.0314 L 2198.5994 165.3314 L 2200.7994 162.6314 L 2203.1994 160.2314 L 2205.7994 158.1314 L 2208.5994 156.1314 L 2211.4994 154.4314 L 2214.6994 153.0314 L 2217.8994 151.9314 L 2221.2994 151.1314 L 2224.7994 150.6314 L 2228.3994 150.4314 L 2412.8994 150.4314 L 2416.4994 150.6314 L 2419.9994 151.1314 L 2423.3994 151.9314 L 2426.6994 153.0314 L 2429.7994 154.4314 L 2432.7994 156.1314 L 2435.5994 158.1314 L 2438.1994 160.2314 L 2440.5994 162.6314 L 2442.6994 165.3314 L 2444.6994 168.0314 L 2446.3994 171.0314 L 2447.7994 174.1314 L 2448.8994 177.4314 L 2449.6994 180.8314 L 2450.1994 184.3314 L 2450.3994 187.9314 L 2450.1994 191.5314 L 2449.6994 195.0314 L 2448.8994 198.4314 L 2447.7994 201.7314 L 2446.3994 204.8314 L 2444.6994 207.8314 L 2442.6994 210.6314 L 2440.5994 213.2314 L 2438.1994 215.6314 L 2435.5994 217.8314 L 2432.7994 219.7314 L 2429.7994 221.4314 L 2426.6994 222.8314 L 2423.3994 223.9314 L 2419.9994 224.8314 L 2416.4994 225.3314 Z" stroke="#ea4335" stroke-linecap="butt" stroke-linejoin="round" stroke-width="1.1"/>
            </g>
          </g>
          <g id="Graphic_122">
            <title>Path-79</title>
            <path d="M 1533.0006 357.33625 L 1435.8006 357.33625 L 1432.2006 357.23625 L 1428.6006 356.73625 L 1425.1006 355.93625 L 1421.7006 354.83625 L 1418.5006 353.43625 L 1415.4006 351.83625 L 1412.4006 349.93625 L 1409.7006 347.73625 L 1407.1006 345.43625 L 1404.8006 342.83625 L 1402.7006 340.13625 L 1400.8006 337.23625 L 1399.1006 334.13625 L 1397.8006 330.83625 L 1396.7006 327.53625 L 1395.9006 324.03625 L 1395.4006 320.43625 L 1395.2006 316.73625 L 1395.4006 313.03625 L 1395.9006 309.43625 L 1396.7006 305.93625 L 1397.8006 302.53625 L 1399.1006 299.33625 L 1400.8006 296.23625 L 1402.7006 293.33625 L 1404.8006 290.53625 L 1407.1006 288.03625 L 1409.7006 285.63625 L 1412.4006 283.53625 L 1415.4006 281.63625 L 1418.5006 280.03625 L 1421.7006 278.63625 L 1425.1006 277.53625 L 1428.6006 276.73625 L 1432.2006 276.23625 L 1435.8006 276.03625 L 1533.0006 276.03625 L 1536.6006 276.23625 L 1540.2006 276.73625 L 1543.7006 277.53625 L 1547.1006 278.63625 L 1550.3006 280.03625 L 1553.4006 281.63625 L 1556.4006 283.53625 L 1559.1006 285.63625 L 1561.7006 288.03625 L 1564.0006 290.53625 L 1566.1006 293.33625 L 1568.0006 296.23625 L 1569.7006 299.33625 L 1571.1006 302.53625 L 1572.2006 305.93625 L 1573.0006 309.43625 L 1573.4006 313.03625 L 1573.6006 316.73625 L 1573.4006 320.43625 L 1573.0006 324.03625 L 1572.2006 327.53625 L 1571.1006 330.83625 L 1569.7006 334.13625 L 1568.0006 337.23625 L 1566.1006 340.13625 L 1564.0006 342.83625 L 1561.7006 345.43625 L 1559.1006 347.73625 L 1556.4006 349.93625 L 1553.4006 351.83625 L 1550.3006 353.43625 L 1547.1006 354.83625 L 1543.7006 355.93625 L 1540.2006 356.73625 L 1536.6006 357.23625 Z" fill="black" fill-opacity="0"/>
          </g>
          <g id="Graphic_121">
            <title>Path-80</title>
            <path d="M 1533.0006 357.33625 L 1435.8006 357.33625 L 1432.2006 357.23625 L 1428.6006 356.73625 L 1425.1006 355.93625 L 1421.7006 354.83625 L 1418.5006 353.43625 L 1415.4006 351.83625 L 1412.4006 349.93625 L 1409.7006 347.73625 L 1407.1006 345.43625 L 1404.8006 342.83625 L 1402.7006 340.13625 L 1400.8006 337.23625 L 1399.1006 334.13625 L 1397.8006 330.83625 L 1396.7006 327.53625 L 1395.9006 324.03625 L 1395.4006 320.43625 L 1395.2006 316.73625 L 1395.4006 313.03625 L 1395.9006 309.43625 L 1396.7006 305.93625 L 1397.8006 302.53625 L 1399.1006 299.33625 L 1400.8006 296.23625 L 1402.7006 293.33625 L 1404.8006 290.53625 L 1407.1006 288.03625 L 1409.7006 285.63625 L 1412.4006 283.53625 L 1415.4006 281.63625 L 1418.5006 280.03625 L 1421.7006 278.63625 L 1425.1006 277.53625 L 1428.6006 276.73625 L 1432.2006 276.23625 L 1435.8006 276.03625 L 1533.0006 276.03625 L 1536.6006 276.23625 L 1540.2006 276.73625 L 1543.7006 277.53625 L 1547.1006 278.63625 L 1550.3006 280.03625 L 1553.4006 281.63625 L 1556.4006 283.53625 L 1559.1006 285.63625 L 1561.7006 288.03625 L 1564.0006 290.53625 L 1566.1006 293.33625 L 1568.0006 296.23625 L 1569.7006 299.33625 L 1571.1006 302.53625 L 1572.2006 305.93625 L 1573.0006 309.43625 L 1573.4006 313.03625 L 1573.6006 316.73625 L 1573.4006 320.43625 L 1573.0006 324.03625 L 1572.2006 327.53625 L 1571.1006 330.83625 L 1569.7006 334.13625 L 1568.0006 337.23625 L 1566.1006 340.13625 L 1564.0006 342.83625 L 1561.7006 345.43625 L 1559.1006 347.73625 L 1556.4006 349.93625 L 1553.4006 351.83625 L 1550.3006 353.43625 L 1547.1006 354.83625 L 1543.7006 355.93625 L 1540.2006 356.73625 L 1536.6006 357.23625 Z" stroke="#34a853" stroke-linecap="butt" stroke-linejoin="round" stroke-width="1.1"/>
          </g>
          <g id="Group_118">
            <g id="Graphic_120">
              <title>Path-2</title>
              <path d="M 1772.6006 224.99662 L 1588.1006 224.99662 L 1584.5006 224.89662 L 1581.0006 224.39662 L 1577.6006 223.49662 L 1574.4006 222.39662 L 1571.2006 220.99662 L 1568.3006 219.29662 L 1565.5006 217.39662 L 1562.9006 215.19662 L 1560.5006 212.79662 L 1558.3006 210.19662 L 1556.3006 207.39662 L 1554.7006 204.39662 L 1553.2006 201.29662 L 1552.1006 197.99662 L 1551.3006 194.59662 L 1550.8006 191.09662 L 1550.6006 187.49662 L 1550.8006 183.89662 L 1551.3006 180.39662 L 1552.1006 176.99662 L 1553.2006 173.69662 L 1554.7006 170.59662 L 1556.3006 167.59662 L 1558.3006 164.89662 L 1560.5006 162.19662 L 1562.9006 159.79662 L 1565.5006 157.69662 L 1568.3006 155.69662 L 1571.2006 153.99662 L 1574.4006 152.59662 L 1577.6006 151.49662 L 1581.0006 150.69662 L 1584.5006 150.19662 L 1588.1006 149.99662 L 1772.6006 149.99662 L 1776.2006 150.19662 L 1779.7006 150.69662 L 1783.1006 151.49662 L 1786.4006 152.59662 L 1789.5006 153.99662 L 1792.5006 155.69662 L 1795.3006 157.69662 L 1797.9006 159.79662 L 1800.3006 162.19662 L 1802.4006 164.89662 L 1804.4006 167.59662 L 1806.1006 170.59662 L 1807.5006 173.69662 L 1808.6006 176.99662 L 1809.4006 180.39662 L 1809.9006 183.89662 L 1810.1006 187.49662 L 1809.9006 191.09662 L 1809.4006 194.59662 L 1808.6006 197.99662 L 1807.5006 201.29662 L 1806.1006 204.39662 L 1804.4006 207.39662 L 1802.4006 210.19662 L 1800.3006 212.79662 L 1797.9006 215.19662 L 1795.3006 217.39662 L 1792.5006 219.29662 L 1789.5006 220.99662 L 1786.4006 222.39662 L 1783.1006 223.49662 L 1779.7006 224.39662 L 1776.2006 224.89662 Z" fill="#4285f4"/>
            </g>
            <g id="Graphic_119">
              <title>Path-3</title>
              <path d="M 1772.6006 224.99662 L 1588.1006 224.99662 L 1584.5006 224.89662 L 1581.0006 224.39662 L 1577.6006 223.49662 L 1574.4006 222.39662 L 1571.2006 220.99662 L 1568.3006 219.29662 L 1565.5006 217.39662 L 1562.9006 215.19662 L 1560.5006 212.79662 L 1558.3006 210.19662 L 1556.3006 207.39662 L 1554.7006 204.39662 L 1553.2006 201.29662 L 1552.1006 197.99662 L 1551.3006 194.59662 L 1550.8006 191.09662 L 1550.6006 187.49662 L 1550.8006 183.89662 L 1551.3006 180.39662 L 1552.1006 176.99662 L 1553.2006 173.69662 L 1554.7006 170.59662 L 1556.3006 167.59662 L 1558.3006 164.89662 L 1560.5006 162.19662 L 1562.9006 159.79662 L 1565.5006 157.69662 L 1568.3006 155.69662 L 1571.2006 153.99662 L 1574.4006 152.59662 L 1577.6006 151.49662 L 1581.0006 150.69662 L 1584.5006 150.19662 L 1588.1006 149.99662 L 1772.6006 149.99662 L 1776.2006 150.19662 L 1779.7006 150.69662 L 1783.1006 151.49662 L 1786.4006 152.59662 L 1789.5006 153.99662 L 1792.5006 155.69662 L 1795.3006 157.69662 L 1797.9006 159.79662 L 1800.3006 162.19662 L 1802.4006 164.89662 L 1804.4006 167.59662 L 1806.1006 170.59662 L 1807.5006 173.69662 L 1808.6006 176.99662 L 1809.4006 180.39662 L 1809.9006 183.89662 L 1810.1006 187.49662 L 1809.9006 191.09662 L 1809.4006 194.59662 L 1808.6006 197.99662 L 1807.5006 201.29662 L 1806.1006 204.39662 L 1804.4006 207.39662 L 1802.4006 210.19662 L 1800.3006 212.79662 L 1797.9006 215.19662 L 1795.3006 217.39662 L 1792.5006 219.29662 L 1789.5006 220.99662 L 1786.4006 222.39662 L 1783.1006 223.49662 L 1779.7006 224.39662 L 1776.2006 224.89662 Z" stroke="#4285f4" stroke-linecap="butt" stroke-linejoin="round" stroke-width="1.1"/>
            </g>
          </g>
          <g id="Graphic_116">
            <text transform="translate(1435.4323 308.18625)" fill="#202124">
              <tspan font-family="Google Sans" font-size="13" fill="#202124" x="0" y="13">Cost-optimized</tspan>
            </text>
          </g>
          <g id="Graphic_115">
            <text transform="translate(1603.9698 175.49662)" fill="white">
              <tspan font-family="Google Sans" font-weight="bold" font-size="19" fill="white" x="0" y="18">General purpose</tspan>
            </text>
          </g>
          <g id="Graphic_114">
            <title>Path-55</title>
            <path d="M 1924.8006 357.33625 L 1827.7006 357.33625 L 1824.0006 357.23625 L 1820.4006 356.73625 L 1817.0006 355.93625 L 1813.6006 354.83625 L 1810.3006 353.43625 L 1807.3006 351.83625 L 1804.3006 349.93625 L 1801.6006 347.73625 L 1799.0006 345.43625 L 1796.7006 342.83625 L 1794.5006 340.13625 L 1792.7006 337.23625 L 1791.0006 334.13625 L 1789.6006 330.83625 L 1788.5006 327.53625 L 1787.7006 324.03625 L 1787.3006 320.43625 L 1787.1006 316.73625 L 1787.3006 313.03625 L 1787.7006 309.43625 L 1788.5006 305.93625 L 1789.6006 302.53625 L 1791.0006 299.33625 L 1792.7006 296.23625 L 1794.5006 293.33625 L 1796.7006 290.53625 L 1799.0006 288.03625 L 1801.6006 285.63625 L 1804.3006 283.53625 L 1807.3006 281.63625 L 1810.3006 280.03625 L 1813.6006 278.63625 L 1817.0006 277.53625 L 1820.4006 276.73625 L 1824.0006 276.23625 L 1827.7006 276.03625 L 1924.8006 276.03625 L 1928.5006 276.23625 L 1932.1006 276.73625 L 1935.6006 277.53625 L 1939.0006 278.63625 L 1942.2006 280.03625 L 1945.3006 281.63625 L 1948.2006 283.53625 L 1951.0006 285.63625 L 1953.6006 288.03625 L 1955.9006 290.53625 L 1958.0006 293.33625 L 1959.9006 296.23625 L 1961.6006 299.33625 L 1962.9006 302.53625 L 1964.0006 305.93625 L 1964.8006 309.43625 L 1965.3006 313.03625 L 1965.5006 316.73625 L 1965.3006 320.43625 L 1964.8006 324.03625 L 1964.0006 327.53625 L 1962.9006 330.83625 L 1961.6006 334.13625 L 1959.9006 337.23625 L 1958.0006 340.13625 L 1955.9006 342.83625 L 1953.6006 345.43625 L 1951.0006 347.73625 L 1948.2006 349.93625 L 1945.3006 351.83625 L 1942.2006 353.43625 L 1939.0006 354.83625 L 1935.6006 355.93625 L 1932.1006 356.73625 L 1928.5006 357.23625 Z" fill="black" fill-opacity="0"/>
          </g>
          <g id="Graphic_113">
            <title>Path-56</title>
            <path d="M 1924.8006 357.33625 L 1827.7006 357.33625 L 1824.0006 357.23625 L 1820.4006 356.73625 L 1817.0006 355.93625 L 1813.6006 354.83625 L 1810.3006 353.43625 L 1807.3006 351.83625 L 1804.3006 349.93625 L 1801.6006 347.73625 L 1799.0006 345.43625 L 1796.7006 342.83625 L 1794.5006 340.13625 L 1792.7006 337.23625 L 1791.0006 334.13625 L 1789.6006 330.83625 L 1788.5006 327.53625 L 1787.7006 324.03625 L 1787.3006 320.43625 L 1787.1006 316.73625 L 1787.3006 313.03625 L 1787.7006 309.43625 L 1788.5006 305.93625 L 1789.6006 302.53625 L 1791.0006 299.33625 L 1792.7006 296.23625 L 1794.5006 293.33625 L 1796.7006 290.53625 L 1799.0006 288.03625 L 1801.6006 285.63625 L 1804.3006 283.53625 L 1807.3006 281.63625 L 1810.3006 280.03625 L 1813.6006 278.63625 L 1817.0006 277.53625 L 1820.4006 276.73625 L 1824.0006 276.23625 L 1827.7006 276.03625 L 1924.8006 276.03625 L 1928.5006 276.23625 L 1932.1006 276.73625 L 1935.6006 277.53625 L 1939.0006 278.63625 L 1942.2006 280.03625 L 1945.3006 281.63625 L 1948.2006 283.53625 L 1951.0006 285.63625 L 1953.6006 288.03625 L 1955.9006 290.53625 L 1958.0006 293.33625 L 1959.9006 296.23625 L 1961.6006 299.33625 L 1962.9006 302.53625 L 1964.0006 305.93625 L 1964.8006 309.43625 L 1965.3006 313.03625 L 1965.5006 316.73625 L 1965.3006 320.43625 L 1964.8006 324.03625 L 1964.0006 327.53625 L 1962.9006 330.83625 L 1961.6006 334.13625 L 1959.9006 337.23625 L 1958.0006 340.13625 L 1955.9006 342.83625 L 1953.6006 345.43625 L 1951.0006 347.73625 L 1948.2006 349.93625 L 1945.3006 351.83625 L 1942.2006 353.43625 L 1939.0006 354.83625 L 1935.6006 355.93625 L 1932.1006 356.73625 L 1928.5006 357.23625 Z" stroke="#fbbc05" stroke-linecap="butt" stroke-linejoin="round" stroke-width="1.1"/>
          </g>
          <g id="Graphic_112">
            <title>Path-65</title>
            <path d="M 1728.9006 357.33625 L 1631.8006 357.33625 L 1628.1006 357.23625 L 1624.5006 356.73625 L 1621.0006 355.93625 L 1617.6006 354.83625 L 1614.4006 353.43625 L 1611.3006 351.83625 L 1608.4006 349.93625 L 1605.6006 347.73625 L 1603.1006 345.43625 L 1600.7006 342.83625 L 1598.6006 340.13625 L 1596.7006 337.23625 L 1595.1006 334.13625 L 1593.7006 330.83625 L 1592.6006 327.53625 L 1591.8006 324.03625 L 1591.3006 320.43625 L 1591.1006 316.73625 L 1591.3006 313.03625 L 1591.8006 309.43625 L 1592.6006 305.93625 L 1593.7006 302.53625 L 1595.1006 299.33625 L 1596.7006 296.23625 L 1598.6006 293.33625 L 1600.7006 290.53625 L 1603.1006 288.03625 L 1605.6006 285.63625 L 1608.4006 283.53625 L 1611.3006 281.63625 L 1614.4006 280.03625 L 1617.6006 278.63625 L 1621.0006 277.53625 L 1624.5006 276.73625 L 1628.1006 276.23625 L 1631.8006 276.03625 L 1728.9006 276.03625 L 1732.6006 276.23625 L 1736.2006 276.73625 L 1739.7006 277.53625 L 1743.1006 278.63625 L 1746.3006 280.03625 L 1749.4006 281.63625 L 1752.3006 283.53625 L 1755.1006 285.63625 L 1757.6006 288.03625 L 1760.0006 290.53625 L 1762.1006 293.33625 L 1764.0006 296.23625 L 1765.6006 299.33625 L 1767.0006 302.53625 L 1768.1006 305.93625 L 1768.9006 309.43625 L 1769.4006 313.03625 L 1769.6006 316.73625 L 1769.4006 320.43625 L 1768.9006 324.03625 L 1768.1006 327.53625 L 1767.0006 330.83625 L 1765.6006 334.13625 L 1764.0006 337.23625 L 1762.1006 340.13625 L 1760.0006 342.83625 L 1757.6006 345.43625 L 1755.1006 347.73625 L 1752.3006 349.93625 L 1749.4006 351.83625 L 1746.3006 353.43625 L 1743.1006 354.83625 L 1739.7006 355.93625 L 1736.2006 356.73625 L 1732.6006 357.23625 Z" fill="black" fill-opacity="0"/>
          </g>
          <g id="Graphic_111">
            <title>Path-66</title>
            <path d="M 1728.9006 357.33625 L 1631.8006 357.33625 L 1628.1006 357.23625 L 1624.5006 356.73625 L 1621.0006 355.93625 L 1617.6006 354.83625 L 1614.4006 353.43625 L 1611.3006 351.83625 L 1608.4006 349.93625 L 1605.6006 347.73625 L 1603.1006 345.43625 L 1600.7006 342.83625 L 1598.6006 340.13625 L 1596.7006 337.23625 L 1595.1006 334.13625 L 1593.7006 330.83625 L 1592.6006 327.53625 L 1591.8006 324.03625 L 1591.3006 320.43625 L 1591.1006 316.73625 L 1591.3006 313.03625 L 1591.8006 309.43625 L 1592.6006 305.93625 L 1593.7006 302.53625 L 1595.1006 299.33625 L 1596.7006 296.23625 L 1598.6006 293.33625 L 1600.7006 290.53625 L 1603.1006 288.03625 L 1605.6006 285.63625 L 1608.4006 283.53625 L 1611.3006 281.63625 L 1614.4006 280.03625 L 1617.6006 278.63625 L 1621.0006 277.53625 L 1624.5006 276.73625 L 1628.1006 276.23625 L 1631.8006 276.03625 L 1728.9006 276.03625 L 1732.6006 276.23625 L 1736.2006 276.73625 L 1739.7006 277.53625 L 1743.1006 278.63625 L 1746.3006 280.03625 L 1749.4006 281.63625 L 1752.3006 283.53625 L 1755.1006 285.63625 L 1757.6006 288.03625 L 1760.0006 290.53625 L 1762.1006 293.33625 L 1764.0006 296.23625 L 1765.6006 299.33625 L 1767.0006 302.53625 L 1768.1006 305.93625 L 1768.9006 309.43625 L 1769.4006 313.03625 L 1769.6006 316.73625 L 1769.4006 320.43625 L 1768.9006 324.03625 L 1768.1006 327.53625 L 1767.0006 330.83625 L 1765.6006 334.13625 L 1764.0006 337.23625 L 1762.1006 340.13625 L 1760.0006 342.83625 L 1757.6006 345.43625 L 1755.1006 347.73625 L 1752.3006 349.93625 L 1749.4006 351.83625 L 1746.3006 353.43625 L 1743.1006 354.83625 L 1739.7006 355.93625 L 1736.2006 356.73625 L 1732.6006 357.23625 Z" stroke="#4285f4" stroke-linecap="butt" stroke-linejoin="round" stroke-width="1.1"/>
          </g>
          <g id="Graphic_109">
            <text transform="translate(1652.5436 308.18625)" fill="#202124">
              <tspan font-family="Google Sans" font-size="13" fill="#202124" x="6998846e-19" y="13">Balanced</tspan>
            </text>
          </g>
          <g id="Graphic_108">
            <text transform="translate(1815.0903 308.18625)" fill="#202124">
              <tspan font-family="Google Sans" font-size="13" fill="#202124" x="31.895236" y="13">Scale-out</tspan>
            </text>
          </g>
          <g id="Graphic_107">
            <title>Path-79</title>
            <path d="M 1533.0006 482.13625 L 1435.8006 482.13625 L 1432.2006 482.03625 L 1428.6006 481.53625 L 1425.1006 480.73625 L 1421.7006 479.63625 L 1418.5006 478.23625 L 1415.4006 476.63625 L 1412.4006 474.73625 L 1409.7006 472.53625 L 1407.1006 470.23625 L 1404.8006 467.63625 L 1402.7006 464.93625 L 1400.8006 462.03625 L 1399.1006 458.93625 L 1397.8006 455.63625 L 1396.7006 452.33625 L 1395.9006 448.83625 L 1395.4006 445.23625 L 1395.2006 441.53625 L 1395.4006 437.83625 L 1395.9006 434.23625 L 1396.7006 430.73625 L 1397.8006 427.33625 L 1399.1006 424.13625 L 1400.8006 421.03625 L 1402.7006 418.13625 L 1404.8006 415.33625 L 1407.1006 412.83625 L 1409.7006 410.43625 L 1412.4006 408.33625 L 1415.4006 406.43625 L 1418.5006 404.83625 L 1421.7006 403.43625 L 1425.1006 402.33625 L 1428.6006 401.53625 L 1432.2006 401.03625 L 1435.8006 400.83625 L 1533.0006 400.83625 L 1536.6006 401.03625 L 1540.2006 401.53625 L 1543.7006 402.33625 L 1547.1006 403.43625 L 1550.3006 404.83625 L 1553.4006 406.43625 L 1556.4006 408.33625 L 1559.1006 410.43625 L 1561.7006 412.83625 L 1564.0006 415.33625 L 1566.1006 418.13625 L 1568.0006 421.03625 L 1569.7006 424.13625 L 1571.1006 427.33625 L 1572.2006 430.73625 L 1573.0006 434.23625 L 1573.4006 437.83625 L 1573.6006 441.53625 L 1573.4006 445.23625 L 1573.0006 448.83625 L 1572.2006 452.33625 L 1571.1006 455.63625 L 1569.7006 458.93625 L 1568.0006 462.03625 L 1566.1006 464.93625 L 1564.0006 467.63625 L 1561.7006 470.23625 L 1559.1006 472.53625 L 1556.4006 474.73625 L 1553.4006 476.63625 L 1550.3006 478.23625 L 1547.1006 479.63625 L 1543.7006 480.73625 L 1540.2006 481.53625 L 1536.6006 482.03625 Z" fill="black" fill-opacity="0"/>
          </g>
          <g id="Graphic_106">
            <title>Path-80</title>
            <path d="M 1533.0006 482.13625 L 1435.8006 482.13625 L 1432.2006 482.03625 L 1428.6006 481.53625 L 1425.1006 480.73625 L 1421.7006 479.63625 L 1418.5006 478.23625 L 1415.4006 476.63625 L 1412.4006 474.73625 L 1409.7006 472.53625 L 1407.1006 470.23625 L 1404.8006 467.63625 L 1402.7006 464.93625 L 1400.8006 462.03625 L 1399.1006 458.93625 L 1397.8006 455.63625 L 1396.7006 452.33625 L 1395.9006 448.83625 L 1395.4006 445.23625 L 1395.2006 441.53625 L 1395.4006 437.83625 L 1395.9006 434.23625 L 1396.7006 430.73625 L 1397.8006 427.33625 L 1399.1006 424.13625 L 1400.8006 421.03625 L 1402.7006 418.13625 L 1404.8006 415.33625 L 1407.1006 412.83625 L 1409.7006 410.43625 L 1412.4006 408.33625 L 1415.4006 406.43625 L 1418.5006 404.83625 L 1421.7006 403.43625 L 1425.1006 402.33625 L 1428.6006 401.53625 L 1432.2006 401.03625 L 1435.8006 400.83625 L 1533.0006 400.83625 L 1536.6006 401.03625 L 1540.2006 401.53625 L 1543.7006 402.33625 L 1547.1006 403.43625 L 1550.3006 404.83625 L 1553.4006 406.43625 L 1556.4006 408.33625 L 1559.1006 410.43625 L 1561.7006 412.83625 L 1564.0006 415.33625 L 1566.1006 418.13625 L 1568.0006 421.03625 L 1569.7006 424.13625 L 1571.1006 427.33625 L 1572.2006 430.73625 L 1573.0006 434.23625 L 1573.4006 437.83625 L 1573.6006 441.53625 L 1573.4006 445.23625 L 1573.0006 448.83625 L 1572.2006 452.33625 L 1571.1006 455.63625 L 1569.7006 458.93625 L 1568.0006 462.03625 L 1566.1006 464.93625 L 1564.0006 467.63625 L 1561.7006 470.23625 L 1559.1006 472.53625 L 1556.4006 474.73625 L 1553.4006 476.63625 L 1550.3006 478.23625 L 1547.1006 479.63625 L 1543.7006 480.73625 L 1540.2006 481.53625 L 1536.6006 482.03625 Z" stroke="#34a853" stroke-linecap="butt" stroke-linejoin="round" stroke-width="1.1"/>
          </g>
          <g id="Graphic_105">
            <text transform="translate(1445.862 424.48625)" fill="#202124">
              <tspan font-family="Google Sans" font-size="13" fill="#202124" x="5684342e-19" y="13">Cost savings</tspan>
              <tspan font-family="Google Sans" font-size="13" fill="#202124" x="11.128" y="30">a priority</tspan>
            </text>
          </g>
          <g id="Graphic_104">
            <title>Path-55</title>
            <path d="M 1924.8006 482.13625 L 1827.7006 482.13625 L 1824.0006 482.03625 L 1820.4006 481.53625 L 1817.0006 480.73625 L 1813.6006 479.63625 L 1810.3006 478.23625 L 1807.3006 476.63625 L 1804.3006 474.73625 L 1801.6006 472.53625 L 1799.0006 470.23625 L 1796.7006 467.63625 L 1794.5006 464.93625 L 1792.7006 462.03625 L 1791.0006 458.93625 L 1789.6006 455.63625 L 1788.5006 452.33625 L 1787.7006 448.83625 L 1787.3006 445.23625 L 1787.1006 441.53625 L 1787.3006 437.83625 L 1787.7006 434.23625 L 1788.5006 430.73625 L 1789.6006 427.33625 L 1791.0006 424.13625 L 1792.7006 421.03625 L 1794.5006 418.13625 L 1796.7006 415.33625 L 1799.0006 412.83625 L 1801.6006 410.43625 L 1804.3006 408.33625 L 1807.3006 406.43625 L 1810.3006 404.83625 L 1813.6006 403.43625 L 1817.0006 402.33625 L 1820.4006 401.53625 L 1824.0006 401.03625 L 1827.7006 400.83625 L 1924.8006 400.83625 L 1928.5006 401.03625 L 1932.1006 401.53625 L 1935.6006 402.33625 L 1939.0006 403.43625 L 1942.2006 404.83625 L 1945.3006 406.43625 L 1948.2006 408.33625 L 1951.0006 410.43625 L 1953.6006 412.83625 L 1955.9006 415.33625 L 1958.0006 418.13625 L 1959.9006 421.03625 L 1961.6006 424.13625 L 1962.9006 427.33625 L 1964.0006 430.73625 L 1964.8006 434.23625 L 1965.3006 437.83625 L 1965.5006 441.53625 L 1965.3006 445.23625 L 1964.8006 448.83625 L 1964.0006 452.33625 L 1962.9006 455.63625 L 1961.6006 458.93625 L 1959.9006 462.03625 L 1958.0006 464.93625 L 1955.9006 467.63625 L 1953.6006 470.23625 L 1951.0006 472.53625 L 1948.2006 474.73625 L 1945.3006 476.63625 L 1942.2006 478.23625 L 1939.0006 479.63625 L 1935.6006 480.73625 L 1932.1006 481.53625 L 1928.5006 482.03625 Z" fill="black" fill-opacity="0"/>
          </g>
          <g id="Graphic_103">
            <title>Path-56</title>
            <path d="M 1924.8006 482.13625 L 1827.7006 482.13625 L 1824.0006 482.03625 L 1820.4006 481.53625 L 1817.0006 480.73625 L 1813.6006 479.63625 L 1810.3006 478.23625 L 1807.3006 476.63625 L 1804.3006 474.73625 L 1801.6006 472.53625 L 1799.0006 470.23625 L 1796.7006 467.63625 L 1794.5006 464.93625 L 1792.7006 462.03625 L 1791.0006 458.93625 L 1789.6006 455.63625 L 1788.5006 452.33625 L 1787.7006 448.83625 L 1787.3006 445.23625 L 1787.1006 441.53625 L 1787.3006 437.83625 L 1787.7006 434.23625 L 1788.5006 430.73625 L 1789.6006 427.33625 L 1791.0006 424.13625 L 1792.7006 421.03625 L 1794.5006 418.13625 L 1796.7006 415.33625 L 1799.0006 412.83625 L 1801.6006 410.43625 L 1804.3006 408.33625 L 1807.3006 406.43625 L 1810.3006 404.83625 L 1813.6006 403.43625 L 1817.0006 402.33625 L 1820.4006 401.53625 L 1824.0006 401.03625 L 1827.7006 400.83625 L 1924.8006 400.83625 L 1928.5006 401.03625 L 1932.1006 401.53625 L 1935.6006 402.33625 L 1939.0006 403.43625 L 1942.2006 404.83625 L 1945.3006 406.43625 L 1948.2006 408.33625 L 1951.0006 410.43625 L 1953.6006 412.83625 L 1955.9006 415.33625 L 1958.0006 418.13625 L 1959.9006 421.03625 L 1961.6006 424.13625 L 1962.9006 427.33625 L 1964.0006 430.73625 L 1964.8006 434.23625 L 1965.3006 437.83625 L 1965.5006 441.53625 L 1965.3006 445.23625 L 1964.8006 448.83625 L 1964.0006 452.33625 L 1962.9006 455.63625 L 1961.6006 458.93625 L 1959.9006 462.03625 L 1958.0006 464.93625 L 1955.9006 467.63625 L 1953.6006 470.23625 L 1951.0006 472.53625 L 1948.2006 474.73625 L 1945.3006 476.63625 L 1942.2006 478.23625 L 1939.0006 479.63625 L 1935.6006 480.73625 L 1932.1006 481.53625 L 1928.5006 482.03625 Z" stroke="#fbbc05" stroke-linecap="butt" stroke-linejoin="round" stroke-width="1.1"/>
          </g>
          <g id="Graphic_102">
            <title>Path-65</title>
            <path d="M 1728.9006 482.13625 L 1631.8006 482.13625 L 1628.1006 482.03625 L 1624.5006 481.53625 L 1621.0006 480.73625 L 1617.6006 479.63625 L 1614.4006 478.23625 L 1611.3006 476.63625 L 1608.4006 474.73625 L 1605.6006 472.53625 L 1603.1006 470.23625 L 1600.7006 467.63625 L 1598.6006 464.93625 L 1596.7006 462.03625 L 1595.1006 458.93625 L 1593.7006 455.63625 L 1592.6006 452.33625 L 1591.8006 448.83625 L 1591.3006 445.23625 L 1591.1006 441.53625 L 1591.3006 437.83625 L 1591.8006 434.23625 L 1592.6006 430.73625 L 1593.7006 427.33625 L 1595.1006 424.13625 L 1596.7006 421.03625 L 1598.6006 418.13625 L 1600.7006 415.33625 L 1603.1006 412.83625 L 1605.6006 410.43625 L 1608.4006 408.33625 L 1611.3006 406.43625 L 1614.4006 404.83625 L 1617.6006 403.43625 L 1621.0006 402.33625 L 1624.5006 401.53625 L 1628.1006 401.03625 L 1631.8006 400.83625 L 1728.9006 400.83625 L 1732.6006 401.03625 L 1736.2006 401.53625 L 1739.7006 402.33625 L 1743.1006 403.43625 L 1746.3006 404.83625 L 1749.4006 406.43625 L 1752.3006 408.33625 L 1755.1006 410.43625 L 1757.6006 412.83625 L 1760.0006 415.33625 L 1762.1006 418.13625 L 1764.0006 421.03625 L 1765.6006 424.13625 L 1767.0006 427.33625 L 1768.1006 430.73625 L 1768.9006 434.23625 L 1769.4006 437.83625 L 1769.6006 441.53625 L 1769.4006 445.23625 L 1768.9006 448.83625 L 1768.1006 452.33625 L 1767.0006 455.63625 L 1765.6006 458.93625 L 1764.0006 462.03625 L 1762.1006 464.93625 L 1760.0006 467.63625 L 1757.6006 470.23625 L 1755.1006 472.53625 L 1752.3006 474.73625 L 1749.4006 476.63625 L 1746.3006 478.23625 L 1743.1006 479.63625 L 1739.7006 480.73625 L 1736.2006 481.53625 L 1732.6006 482.03625 Z" fill="black" fill-opacity="0"/>
          </g>
          <g id="Graphic_101">
            <title>Path-66</title>
            <path d="M 1728.9006 482.13625 L 1631.8006 482.13625 L 1628.1006 482.03625 L 1624.5006 481.53625 L 1621.0006 480.73625 L 1617.6006 479.63625 L 1614.4006 478.23625 L 1611.3006 476.63625 L 1608.4006 474.73625 L 1605.6006 472.53625 L 1603.1006 470.23625 L 1600.7006 467.63625 L 1598.6006 464.93625 L 1596.7006 462.03625 L 1595.1006 458.93625 L 1593.7006 455.63625 L 1592.6006 452.33625 L 1591.8006 448.83625 L 1591.3006 445.23625 L 1591.1006 441.53625 L 1591.3006 437.83625 L 1591.8006 434.23625 L 1592.6006 430.73625 L 1593.7006 427.33625 L 1595.1006 424.13625 L 1596.7006 421.03625 L 1598.6006 418.13625 L 1600.7006 415.33625 L 1603.1006 412.83625 L 1605.6006 410.43625 L 1608.4006 408.33625 L 1611.3006 406.43625 L 1614.4006 404.83625 L 1617.6006 403.43625 L 1621.0006 402.33625 L 1624.5006 401.53625 L 1628.1006 401.03625 L 1631.8006 400.83625 L 1728.9006 400.83625 L 1732.6006 401.03625 L 1736.2006 401.53625 L 1739.7006 402.33625 L 1743.1006 403.43625 L 1746.3006 404.83625 L 1749.4006 406.43625 L 1752.3006 408.33625 L 1755.1006 410.43625 L 1757.6006 412.83625 L 1760.0006 415.33625 L 1762.1006 418.13625 L 1764.0006 421.03625 L 1765.6006 424.13625 L 1767.0006 427.33625 L 1768.1006 430.73625 L 1768.9006 434.23625 L 1769.4006 437.83625 L 1769.6006 441.53625 L 1769.4006 445.23625 L 1768.9006 448.83625 L 1768.1006 452.33625 L 1767.0006 455.63625 L 1765.6006 458.93625 L 1764.0006 462.03625 L 1762.1006 464.93625 L 1760.0006 467.63625 L 1757.6006 470.23625 L 1755.1006 472.53625 L 1752.3006 474.73625 L 1749.4006 476.63625 L 1746.3006 478.23625 L 1743.1006 479.63625 L 1739.7006 480.73625 L 1736.2006 481.53625 L 1732.6006 482.03625 Z" stroke="#4285f4" stroke-linecap="butt" stroke-linejoin="round" stroke-width="1.1"/>
          </g>
          <g id="Graphic_100">
            <text transform="translate(1607.6988 415.98625)" fill="#202124">
              <tspan font-family="Google Sans" font-size="13" fill="#202124" x="7.67" y="13">Flexible and balanced</tspan>
              <tspan font-family="Google Sans" font-size="13" fill="#202124" x="7105427e-20" y="30">between customization,</tspan>
              <tspan font-family="Google Sans" font-size="13" fill="#202124" x="5.3885" y="47">performance and TCO</tspan>
            </text>
          </g>
          <g id="Graphic_99">
            <text transform="translate(1816.2016 424.48625)" fill="#202124">
              <tspan font-family="Google Sans" font-size="13" fill="#202124" x="16.6075" y="13">Best perf/$ for</tspan>
              <tspan font-family="Google Sans" font-size="13" fill="#202124" x="1563194e-19" y="30">scale out workloads</tspan>
            </text>
          </g>
          <g id="Graphic_95">
            <title>Path-84</title>
            <path d="M 1537.8006 706.5556 L 1431.0006 706.5556 L 1427.4006 706.3556 L 1424.0006 705.7556 L 1420.8006 704.7556 L 1417.7006 703.4556 L 1414.7006 701.7556 L 1412.0006 699.8556 L 1409.6006 697.6556 L 1407.3006 695.1556 L 1405.4006 692.4556 L 1403.8006 689.5556 L 1402.4006 686.4556 L 1401.5006 683.1556 L 1400.9006 679.7556 L 1400.7006 676.2556 L 1400.7006 556.0556 L 1400.9006 552.5556 L 1401.5006 549.1556 L 1402.4006 545.8556 L 1403.8006 542.7556 L 1405.4006 539.8556 L 1407.3006 537.1556 L 1409.6006 534.6556 L 1412.0006 532.4556 L 1414.7006 530.4556 L 1417.7006 528.8556 L 1420.8006 527.5556 L 1424.0006 526.5556 L 1427.4006 525.9556 L 1431.0006 525.7556 L 1537.8006 525.7556 L 1541.4006 525.9556 L 1544.8006 526.5556 L 1548.0006 527.5556 L 1551.1006 528.8556 L 1554.0006 530.4556 L 1556.8006 532.4556 L 1559.2006 534.6556 L 1561.5006 537.1556 L 1563.4006 539.8556 L 1565.0006 542.7556 L 1566.4006 545.8556 L 1567.3006 549.1556 L 1567.9006 552.5556 L 1568.1006 556.0556 L 1568.1006 676.2556 L 1567.9006 679.7556 L 1567.3006 683.1556 L 1566.4006 686.4556 L 1565.0006 689.5556 L 1563.4006 692.4556 L 1561.5006 695.1556 L 1559.2006 697.6556 L 1556.8006 699.8556 L 1554.0006 701.7556 L 1551.1006 703.4556 L 1548.0006 704.7556 L 1544.8006 705.7556 L 1541.4006 706.3556 Z" stroke="#34a853" stroke-linecap="butt" stroke-linejoin="round" stroke-width="1.1"/>
          </g>
          <g id="Line_94">
            <title>Path-86</title>
            <line x1="1419.0006" y1="601.8556" x2="1478.9006" y2="601.8556" stroke="#a8dab5" stroke-linecap="butt" stroke-linejoin="round" stroke-width="1.1"/>
          </g>
          <g id="Line_93">
            <title>Path-88</title>
            <line x1="1419.0006" y1="630.1556" x2="1478.9006" y2="630.1556" stroke="#a8dab5" stroke-linecap="butt" stroke-linejoin="round" stroke-width="1.1"/>
          </g>
          <g id="Line_92">
            <title>Path-90</title>
            <line x1="1419.6006" y1="568.92835" x2="1549.2006" y2="568.92835" stroke="#34a853" stroke-linecap="butt" stroke-linejoin="round" stroke-width="1.1"/>
          </g>
          <g id="Line_91">
            <title>Path-92</title>
            <line x1="1419.0006" y1="658.3556" x2="1478.9006" y2="658.3556" stroke="#a8dab5" stroke-linecap="butt" stroke-linejoin="round" stroke-width="1.1"/>
          </g>
          <g id="Graphic_90">
            <text transform="translate(1476.3576 539.7556)" fill="#202124">
              <tspan font-family="Google Sans" font-weight="bold" font-size="14" fill="#202124" x="0" y="14">E2</tspan>
            </text>
          </g>
          <g id="Graphic_89">
            <text transform="translate(1419.0614 583.8556)" fill="#202124">
              <tspan font-family="Google Sans" font-size="10" fill="#202124" x="0" y="10">Web Serving</tspan>
            </text>
          </g>
          <g id="Graphic_88">
            <text transform="translate(1418.3452 611.3973)" fill="#202124">
              <tspan font-family="Google Sans" font-size="10" fill="#202124" x="7247536e-19" y="10">Steady-state LOB apps</tspan>
            </text>
          </g>
          <g id="Graphic_87">
            <text transform="translate(1418.3452 639.8273)" fill="#202124">
              <tspan font-family="Google Sans" font-size="10" fill="#202124" x="0" y="10">Dev &amp; Test environments</tspan>
            </text>
          </g>
          <g id="Graphic_86">
            <title>Path-67</title>
            <path d="M 1733.8006 707.113 L 1626.9006 707.113 L 1623.4006 706.913 L 1620.0006 706.313 L 1616.7006 705.313 L 1613.6006 704.013 L 1610.7006 702.313 L 1608.0006 700.413 L 1605.5006 698.213 L 1603.3006 695.713 L 1601.3006 693.013 L 1599.7006 690.113 L 1598.4006 687.013 L 1597.4006 683.713 L 1596.8006 680.313 L 1596.6006 676.813 L 1596.6006 556.613 L 1596.8006 553.113 L 1597.4006 549.713 L 1598.4006 546.413 L 1599.7006 543.313 L 1601.3006 540.413 L 1603.3006 537.713 L 1605.5006 535.213 L 1608.0006 533.013 L 1610.7006 531.013 L 1613.6006 529.413 L 1616.7006 528.113 L 1620.0006 527.113 L 1623.4006 526.513 L 1626.9006 526.313 L 1733.8006 526.313 L 1737.3006 526.513 L 1740.7006 527.113 L 1744.0006 528.113 L 1747.1006 529.413 L 1750.0006 531.013 L 1752.7006 533.013 L 1755.2006 535.213 L 1757.4006 537.713 L 1759.3006 540.413 L 1761.0006 543.313 L 1762.3006 546.413 L 1763.3006 549.713 L 1763.9006 553.113 L 1764.1006 556.613 L 1764.1006 676.813 L 1763.9006 680.313 L 1763.3006 683.713 L 1762.3006 687.013 L 1761.0006 690.113 L 1759.3006 693.013 L 1757.4006 695.713 L 1755.2006 698.213 L 1752.7006 700.413 L 1750.0006 702.313 L 1747.1006 704.013 L 1744.0006 705.313 L 1740.7006 706.313 L 1737.3006 706.913 Z" fill="black" fill-opacity="0"/>
          </g>
          <g id="Graphic_85">
            <title>Path-68</title>
            <path d="M 1733.8006 707.113 L 1626.9006 707.113 L 1623.4006 706.913 L 1620.0006 706.313 L 1616.7006 705.313 L 1613.6006 704.013 L 1610.7006 702.313 L 1608.0006 700.413 L 1605.5006 698.213 L 1603.3006 695.713 L 1601.3006 693.013 L 1599.7006 690.113 L 1598.4006 687.013 L 1597.4006 683.713 L 1596.8006 680.313 L 1596.6006 676.813 L 1596.6006 556.613 L 1596.8006 553.113 L 1597.4006 549.713 L 1598.4006 546.413 L 1599.7006 543.313 L 1601.3006 540.413 L 1603.3006 537.713 L 1605.5006 535.213 L 1608.0006 533.013 L 1610.7006 531.013 L 1613.6006 529.413 L 1616.7006 528.113 L 1620.0006 527.113 L 1623.4006 526.513 L 1626.9006 526.313 L 1733.8006 526.313 L 1737.3006 526.513 L 1740.7006 527.113 L 1744.0006 528.113 L 1747.1006 529.413 L 1750.0006 531.013 L 1752.7006 533.013 L 1755.2006 535.213 L 1757.4006 537.713 L 1759.3006 540.413 L 1761.0006 543.313 L 1762.3006 546.413 L 1763.3006 549.713 L 1763.9006 553.113 L 1764.1006 556.613 L 1764.1006 676.813 L 1763.9006 680.313 L 1763.3006 683.713 L 1762.3006 687.013 L 1761.0006 690.113 L 1759.3006 693.013 L 1757.4006 695.713 L 1755.2006 698.213 L 1752.7006 700.413 L 1750.0006 702.313 L 1747.1006 704.013 L 1744.0006 705.313 L 1740.7006 706.313 L 1737.3006 706.913 Z" stroke="#4285f4" stroke-linecap="butt" stroke-linejoin="round" stroke-width="1.1"/>
          </g>
          <g id="Line_84">
            <title>Path-70</title>
            <line x1="1614.8006" y1="601.8556" x2="1674.7006" y2="601.8556" stroke="#adcaf9" stroke-linecap="butt" stroke-linejoin="round" stroke-width="1.1"/>
          </g>
          <g id="Line_83">
            <title>Path-72</title>
            <line x1="1614.8006" y1="630.1556" x2="1674.7006" y2="630.1556" stroke="#adcaf9" stroke-linecap="butt" stroke-linejoin="round" stroke-width="1.1"/>
          </g>
          <g id="Line_82">
            <title>Path-74</title>
            <line x1="1615.4006" y1="568.4812" x2="1745.1006" y2="568.4812" stroke="#4285f4" stroke-linecap="butt" stroke-linejoin="round" stroke-width="1.1"/>
          </g>
          <g id="Line_81">
            <title>Path-76</title>
            <line x1="1614.8006" y1="658.3556" x2="1674.7006" y2="658.3556" stroke="#adcaf9" stroke-linecap="butt" stroke-linejoin="round" stroke-width="1.1"/>
          </g>
          <g id="Graphic_80">
            <text transform="translate(1653.3446 539.7556)" fill="#202124">
              <tspan font-family="Google Sans" font-weight="bold" font-size="14" fill="#202124" x="0" y="14">N2, N2D</tspan>
            </text>
          </g>
          <g id="Graphic_79">
            <text transform="translate(1613.9211 583.8556)" fill="#202124">
              <tspan font-family="Google Sans" font-size="10" fill="#202124" x="0" y="10">Enterprise apps</tspan>
            </text>
          </g>
          <g id="Graphic_78">
            <text transform="translate(1614.366 611.3973)" fill="#202124">
              <tspan font-family="Google Sans" font-size="10" fill="#202124" x="0" y="10">Small-med databases</tspan>
            </text>
          </g>
          <g id="Graphic_77">
            <text transform="translate(1614.8206 639.8273)" fill="#202124">
              <tspan font-family="Google Sans" font-size="10" fill="#202124" x="5755396e-19" y="10">Web &amp; App Serving</tspan>
            </text>
          </g>
          <g id="Graphic_76">
            <title>Path-58</title>
            <path d="M 1929.7506 708.2241 L 1822.8506 708.2241 L 1819.3506 708.0241 L 1815.9506 707.4241 L 1812.6506 706.4241 L 1809.5506 705.1241 L 1806.6506 703.4241 L 1803.9506 701.5241 L 1801.4506 699.3241 L 1799.2506 696.8241 L 1797.3506 694.1241 L 1795.6506 691.2241 L 1794.3506 688.1241 L 1793.4506 684.8241 L 1792.8506 681.4241 L 1792.5506 677.9241 L 1792.5506 557.7241 L 1792.8506 554.2241 L 1793.4506 550.8241 L 1794.3506 547.5241 L 1795.6506 544.4241 L 1797.3506 541.5241 L 1799.2506 538.8241 L 1801.4506 536.3241 L 1803.9506 534.1241 L 1806.6506 532.1241 L 1809.5506 530.5241 L 1812.6506 529.2241 L 1815.9506 528.2241 L 1819.3506 527.6241 L 1822.8506 527.4241 L 1929.7506 527.4241 L 1933.2506 527.6241 L 1936.6506 528.2241 L 1939.9506 529.2241 L 1943.0506 530.5241 L 1945.9506 532.1241 L 1948.6506 534.1241 L 1951.1506 536.3241 L 1953.3506 538.8241 L 1955.3506 541.5241 L 1956.9506 544.4241 L 1958.2506 547.5241 L 1959.2506 550.8241 L 1959.8506 554.2241 L 1960.0506 557.7241 L 1960.0506 677.9241 L 1959.8506 681.4241 L 1959.2506 684.8241 L 1958.2506 688.1241 L 1956.9506 691.2241 L 1955.3506 694.1241 L 1953.3506 696.8241 L 1951.1506 699.3241 L 1948.6506 701.5241 L 1945.9506 703.4241 L 1943.0506 705.1241 L 1939.9506 706.4241 L 1936.6506 707.4241 L 1933.2506 708.0241 Z" stroke="#fbbc05" stroke-linecap="butt" stroke-linejoin="round" stroke-width="1.1"/>
          </g>
          <g id="Line_75">
            <title>Path-60</title>
            <line x1="1810.9506" y1="601.8556" x2="1870.8506" y2="601.8556" stroke="#fce192" stroke-linecap="butt" stroke-linejoin="round" stroke-width="1.1"/>
          </g>
          <g id="Line_74">
            <title>Path-62</title>
            <line x1="1811.4506" y1="569.3241" x2="1941.1506" y2="569.3241" stroke="#fbbc05" stroke-linecap="butt" stroke-linejoin="round" stroke-width="1.1"/>
          </g>
          <g id="Graphic_73">
            <text transform="translate(1808.0783 583.8556)" fill="#202124">
              <tspan font-family="Google Sans" font-size="10" fill="#202124" x="7176482e-19" y="10">Scale out workloads</tspan>
            </text>
          </g>
          <g id="Graphic_72">
            <text transform="translate(1846.8306 530.7556)" fill="#202124">
              <tspan font-family="Google Sans" font-weight="bold" font-size="14" fill="#202124" x="17.759" y="14">Tau</tspan>
              <tspan font-family="Google Sans" font-weight="bold" font-size="14" fill="#202124" x="0" y="32">T2D, T2A</tspan>
            </text>
          </g>
          <g id="Group_64">
            <g id="Graphic_67">
              <title>Path-79</title>
              <path d="M 2173.2994 357.33625 L 2076.0994 357.33625 L 2072.4994 357.23625 L 2068.8994 356.73625 L 2065.3994 355.93625 L 2061.9994 354.83625 L 2058.7994 353.43625 L 2055.6994 351.83625 L 2052.6994 349.93625 L 2049.9994 347.73625 L 2047.3994 345.43625 L 2045.0994 342.83625 L 2042.9994 340.13625 L 2041.0994 337.23625 L 2039.3994 334.13625 L 2038.0994 330.83625 L 2036.9994 327.53625 L 2036.1994 324.03625 L 2035.6994 320.43625 L 2035.4994 316.73625 L 2035.6994 313.03625 L 2036.1994 309.43625 L 2036.9994 305.93625 L 2038.0994 302.53625 L 2039.3994 299.33625 L 2041.0994 296.23625 L 2042.9994 293.33625 L 2045.0994 290.53625 L 2047.3994 288.03625 L 2049.9994 285.63625 L 2052.6994 283.53625 L 2055.6994 281.63625 L 2058.7994 280.03625 L 2061.9994 278.63625 L 2065.3994 277.53625 L 2068.8994 276.73625 L 2072.4994 276.23625 L 2076.0994 276.03625 L 2173.2994 276.03625 L 2176.8994 276.23625 L 2180.4994 276.73625 L 2183.9994 277.53625 L 2187.3994 278.63625 L 2190.5994 280.03625 L 2193.6994 281.63625 L 2196.6994 283.53625 L 2199.3994 285.63625 L 2201.9994 288.03625 L 2204.2994 290.53625 L 2206.3994 293.33625 L 2208.2994 296.23625 L 2209.9994 299.33625 L 2211.3994 302.53625 L 2212.4994 305.93625 L 2213.2994 309.43625 L 2213.6994 313.03625 L 2213.8994 316.73625 L 2213.6994 320.43625 L 2213.2994 324.03625 L 2212.4994 327.53625 L 2211.3994 330.83625 L 2209.9994 334.13625 L 2208.2994 337.23625 L 2206.3994 340.13625 L 2204.2994 342.83625 L 2201.9994 345.43625 L 2199.3994 347.73625 L 2196.6994 349.93625 L 2193.6994 351.83625 L 2190.5994 353.43625 L 2187.3994 354.83625 L 2183.9994 355.93625 L 2180.4994 356.73625 L 2176.8994 357.23625 Z" fill="black" fill-opacity="0"/>
            </g>
            <g id="Graphic_66">
              <title>Path-80</title>
              <path d="M 2173.2994 357.33625 L 2076.0994 357.33625 L 2072.4994 357.23625 L 2068.8994 356.73625 L 2065.3994 355.93625 L 2061.9994 354.83625 L 2058.7994 353.43625 L 2055.6994 351.83625 L 2052.6994 349.93625 L 2049.9994 347.73625 L 2047.3994 345.43625 L 2045.0994 342.83625 L 2042.9994 340.13625 L 2041.0994 337.23625 L 2039.3994 334.13625 L 2038.0994 330.83625 L 2036.9994 327.53625 L 2036.1994 324.03625 L 2035.6994 320.43625 L 2035.4994 316.73625 L 2035.6994 313.03625 L 2036.1994 309.43625 L 2036.9994 305.93625 L 2038.0994 302.53625 L 2039.3994 299.33625 L 2041.0994 296.23625 L 2042.9994 293.33625 L 2045.0994 290.53625 L 2047.3994 288.03625 L 2049.9994 285.63625 L 2052.6994 283.53625 L 2055.6994 281.63625 L 2058.7994 280.03625 L 2061.9994 278.63625 L 2065.3994 277.53625 L 2068.8994 276.73625 L 2072.4994 276.23625 L 2076.0994 276.03625 L 2173.2994 276.03625 L 2176.8994 276.23625 L 2180.4994 276.73625 L 2183.9994 277.53625 L 2187.3994 278.63625 L 2190.5994 280.03625 L 2193.6994 281.63625 L 2196.6994 283.53625 L 2199.3994 285.63625 L 2201.9994 288.03625 L 2204.2994 290.53625 L 2206.3994 293.33625 L 2208.2994 296.23625 L 2209.9994 299.33625 L 2211.3994 302.53625 L 2212.4994 305.93625 L 2213.2994 309.43625 L 2213.6994 313.03625 L 2213.8994 316.73625 L 2213.6994 320.43625 L 2213.2994 324.03625 L 2212.4994 327.53625 L 2211.3994 330.83625 L 2209.9994 334.13625 L 2208.2994 337.23625 L 2206.3994 340.13625 L 2204.2994 342.83625 L 2201.9994 345.43625 L 2199.3994 347.73625 L 2196.6994 349.93625 L 2193.6994 351.83625 L 2190.5994 353.43625 L 2187.3994 354.83625 L 2183.9994 355.93625 L 2180.4994 356.73625 L 2176.8994 357.23625 Z" stroke="#eb4235" stroke-linecap="butt" stroke-linejoin="round" stroke-width="1.1"/>
            </g>
            <g id="Graphic_65">
              <text transform="translate(2092.982 299.68625)" fill="#202124">
                <tspan font-family="Google Sans" font-size="13" fill="#202124" x="2.0475" y="13">Compute</tspan>
                <tspan font-family="Google Sans" font-size="13" fill="#202124" x="0" y="30">optimized</tspan>
              </text>
            </g>
          </g>
          <g id="Graphic_63">
            <text transform="translate(2226.9216 175.49662)" fill="white">
              <tspan font-family="Google Sans" font-weight="bold" font-size="19" fill="white" x="0" y="18">Workload-optimized</tspan>
            </text>
          </g>
          <g id="Group_58">
            <g id="Graphic_61">
              <title>Path-65</title>
              <path d="M 2369.1994 357.33625 L 2272.0994 357.33625 L 2268.3994 357.23625 L 2264.7994 356.73625 L 2261.2994 355.93625 L 2257.8994 354.83625 L 2254.6994 353.43625 L 2251.5994 351.83625 L 2248.6994 349.93625 L 2245.8994 347.73625 L 2243.3994 345.43625 L 2240.9994 342.83625 L 2238.8994 340.13625 L 2236.9994 337.23625 L 2235.3994 334.13625 L 2233.9994 330.83625 L 2232.8994 327.53625 L 2232.0994 324.03625 L 2231.5994 320.43625 L 2231.3994 316.73625 L 2231.5994 313.03625 L 2232.0994 309.43625 L 2232.8994 305.93625 L 2233.9994 302.53625 L 2235.3994 299.33625 L 2236.9994 296.23625 L 2238.8994 293.33625 L 2240.9994 290.53625 L 2243.3994 288.03625 L 2245.8994 285.63625 L 2248.6994 283.53625 L 2251.5994 281.63625 L 2254.6994 280.03625 L 2257.8994 278.63625 L 2261.2994 277.53625 L 2264.7994 276.73625 L 2268.3994 276.23625 L 2272.0994 276.03625 L 2369.1994 276.03625 L 2372.8994 276.23625 L 2376.4994 276.73625 L 2379.9994 277.53625 L 2383.3994 278.63625 L 2386.5994 280.03625 L 2389.6994 281.63625 L 2392.5994 283.53625 L 2395.3994 285.63625 L 2397.8994 288.03625 L 2400.2994 290.53625 L 2402.3994 293.33625 L 2404.2994 296.23625 L 2405.8994 299.33625 L 2407.2994 302.53625 L 2408.3994 305.93625 L 2409.1994 309.43625 L 2409.6994 313.03625 L 2409.8994 316.73625 L 2409.6994 320.43625 L 2409.1994 324.03625 L 2408.3994 327.53625 L 2407.2994 330.83625 L 2405.8994 334.13625 L 2404.2994 337.23625 L 2402.3994 340.13625 L 2400.2994 342.83625 L 2397.8994 345.43625 L 2395.3994 347.73625 L 2392.5994 349.93625 L 2389.6994 351.83625 L 2386.5994 353.43625 L 2383.3994 354.83625 L 2379.9994 355.93625 L 2376.4994 356.73625 L 2372.8994 357.23625 Z" fill="black" fill-opacity="0"/>
            </g>
            <g id="Graphic_60">
              <title>Path-66</title>
              <path d="M 2369.1994 357.33625 L 2272.0994 357.33625 L 2268.3994 357.23625 L 2264.7994 356.73625 L 2261.2994 355.93625 L 2257.8994 354.83625 L 2254.6994 353.43625 L 2251.5994 351.83625 L 2248.6994 349.93625 L 2245.8994 347.73625 L 2243.3994 345.43625 L 2240.9994 342.83625 L 2238.8994 340.13625 L 2236.9994 337.23625 L 2235.3994 334.13625 L 2233.9994 330.83625 L 2232.8994 327.53625 L 2232.0994 324.03625 L 2231.5994 320.43625 L 2231.3994 316.73625 L 2231.5994 313.03625 L 2232.0994 309.43625 L 2232.8994 305.93625 L 2233.9994 302.53625 L 2235.3994 299.33625 L 2236.9994 296.23625 L 2238.8994 293.33625 L 2240.9994 290.53625 L 2243.3994 288.03625 L 2245.8994 285.63625 L 2248.6994 283.53625 L 2251.5994 281.63625 L 2254.6994 280.03625 L 2257.8994 278.63625 L 2261.2994 277.53625 L 2264.7994 276.73625 L 2268.3994 276.23625 L 2272.0994 276.03625 L 2369.1994 276.03625 L 2372.8994 276.23625 L 2376.4994 276.73625 L 2379.9994 277.53625 L 2383.3994 278.63625 L 2386.5994 280.03625 L 2389.6994 281.63625 L 2392.5994 283.53625 L 2395.3994 285.63625 L 2397.8994 288.03625 L 2400.2994 290.53625 L 2402.3994 293.33625 L 2404.2994 296.23625 L 2405.8994 299.33625 L 2407.2994 302.53625 L 2408.3994 305.93625 L 2409.1994 309.43625 L 2409.6994 313.03625 L 2409.8994 316.73625 L 2409.6994 320.43625 L 2409.1994 324.03625 L 2408.3994 327.53625 L 2407.2994 330.83625 L 2405.8994 334.13625 L 2404.2994 337.23625 L 2402.3994 340.13625 L 2400.2994 342.83625 L 2397.8994 345.43625 L 2395.3994 347.73625 L 2392.5994 349.93625 L 2389.6994 351.83625 L 2386.5994 353.43625 L 2383.3994 354.83625 L 2379.9994 355.93625 L 2376.4994 356.73625 L 2372.8994 357.23625 Z" stroke="#eb4235" stroke-linecap="butt" stroke-linejoin="round" stroke-width="1.1"/>
            </g>
            <g id="Graphic_59">
              <text transform="translate(2290.314 299.68625)" fill="#202124">
                <tspan font-family="Google Sans" font-size="13" fill="#202124" x="4.9465" y="13">Memory</tspan>
                <tspan font-family="Google Sans" font-size="13" fill="#202124" x="0" y="30">optimized</tspan>
              </text>
            </g>
          </g>
          <g id="Group_54">
            <g id="Graphic_57">
              <title>Path-55</title>
              <path d="M 2565.0994 357.33625 L 2467.9994 357.33625 L 2464.2994 357.23625 L 2460.6994 356.73625 L 2457.2994 355.93625 L 2453.8994 354.83625 L 2450.5994 353.43625 L 2447.5994 351.83625 L 2444.5994 349.93625 L 2441.8994 347.73625 L 2439.2994 345.43625 L 2436.9994 342.83625 L 2434.7994 340.13625 L 2432.9994 337.23625 L 2431.2994 334.13625 L 2429.8994 330.83625 L 2428.7994 327.53625 L 2427.9994 324.03625 L 2427.5994 320.43625 L 2427.3994 316.73625 L 2427.5994 313.03625 L 2427.9994 309.43625 L 2428.7994 305.93625 L 2429.8994 302.53625 L 2431.2994 299.33625 L 2432.9994 296.23625 L 2434.7994 293.33625 L 2436.9994 290.53625 L 2439.2994 288.03625 L 2441.8994 285.63625 L 2444.5994 283.53625 L 2447.5994 281.63625 L 2450.5994 280.03625 L 2453.8994 278.63625 L 2457.2994 277.53625 L 2460.6994 276.73625 L 2464.2994 276.23625 L 2467.9994 276.03625 L 2565.0994 276.03625 L 2568.7994 276.23625 L 2572.3994 276.73625 L 2575.8994 277.53625 L 2579.2994 278.63625 L 2582.4994 280.03625 L 2585.5994 281.63625 L 2588.4994 283.53625 L 2591.2994 285.63625 L 2593.8994 288.03625 L 2596.1994 290.53625 L 2598.2994 293.33625 L 2600.1994 296.23625 L 2601.8994 299.33625 L 2603.1994 302.53625 L 2604.2994 305.93625 L 2605.0994 309.43625 L 2605.5994 313.03625 L 2605.7994 316.73625 L 2605.5994 320.43625 L 2605.0994 324.03625 L 2604.2994 327.53625 L 2603.1994 330.83625 L 2601.8994 334.13625 L 2600.1994 337.23625 L 2598.2994 340.13625 L 2596.1994 342.83625 L 2593.8994 345.43625 L 2591.2994 347.73625 L 2588.4994 349.93625 L 2585.5994 351.83625 L 2582.4994 353.43625 L 2579.2994 354.83625 L 2575.8994 355.93625 L 2572.3994 356.73625 L 2568.7994 357.23625 Z" fill="black" fill-opacity="0"/>
            </g>
            <g id="Graphic_56">
              <title>Path-56</title>
              <path d="M 2565.0994 357.33625 L 2467.9994 357.33625 L 2464.2994 357.23625 L 2460.6994 356.73625 L 2457.2994 355.93625 L 2453.8994 354.83625 L 2450.5994 353.43625 L 2447.5994 351.83625 L 2444.5994 349.93625 L 2441.8994 347.73625 L 2439.2994 345.43625 L 2436.9994 342.83625 L 2434.7994 340.13625 L 2432.9994 337.23625 L 2431.2994 334.13625 L 2429.8994 330.83625 L 2428.7994 327.53625 L 2427.9994 324.03625 L 2427.5994 320.43625 L 2427.3994 316.73625 L 2427.5994 313.03625 L 2427.9994 309.43625 L 2428.7994 305.93625 L 2429.8994 302.53625 L 2431.2994 299.33625 L 2432.9994 296.23625 L 2434.7994 293.33625 L 2436.9994 290.53625 L 2439.2994 288.03625 L 2441.8994 285.63625 L 2444.5994 283.53625 L 2447.5994 281.63625 L 2450.5994 280.03625 L 2453.8994 278.63625 L 2457.2994 277.53625 L 2460.6994 276.73625 L 2464.2994 276.23625 L 2467.9994 276.03625 L 2565.0994 276.03625 L 2568.7994 276.23625 L 2572.3994 276.73625 L 2575.8994 277.53625 L 2579.2994 278.63625 L 2582.4994 280.03625 L 2585.5994 281.63625 L 2588.4994 283.53625 L 2591.2994 285.63625 L 2593.8994 288.03625 L 2596.1994 290.53625 L 2598.2994 293.33625 L 2600.1994 296.23625 L 2601.8994 299.33625 L 2603.1994 302.53625 L 2604.2994 305.93625 L 2605.0994 309.43625 L 2605.5994 313.03625 L 2605.7994 316.73625 L 2605.5994 320.43625 L 2605.0994 324.03625 L 2604.2994 327.53625 L 2603.1994 330.83625 L 2601.8994 334.13625 L 2600.1994 337.23625 L 2598.2994 340.13625 L 2596.1994 342.83625 L 2593.8994 345.43625 L 2591.2994 347.73625 L 2588.4994 349.93625 L 2585.5994 351.83625 L 2582.4994 353.43625 L 2579.2994 354.83625 L 2575.8994 355.93625 L 2572.3994 356.73625 L 2568.7994 357.23625 Z" stroke="#eb4235" stroke-linecap="butt" stroke-linejoin="round" stroke-width="1.1"/>
            </g>
            <g id="Graphic_55">
              <text transform="translate(2455.3892 299.68625)" fill="#202124">
                <tspan font-family="Google Sans" font-size="13" fill="#202124" x="25.746236" y="13">Accelerator</tspan>
                <tspan font-family="Google Sans" font-size="13" fill="#202124" x="30.874736" y="30">optimized</tspan>
              </text>
            </g>
          </g>
          <g id="Group_50">
            <g id="Graphic_53">
              <title>Path-79</title>
              <path d="M 2173.2994 482.13625 L 2076.0994 482.13625 L 2072.4994 482.03625 L 2068.8994 481.53625 L 2065.3994 480.73625 L 2061.9994 479.63625 L 2058.7994 478.23625 L 2055.6994 476.63625 L 2052.6994 474.73625 L 2049.9994 472.53625 L 2047.3994 470.23625 L 2045.0994 467.63625 L 2042.9994 464.93625 L 2041.0994 462.03625 L 2039.3994 458.93625 L 2038.0994 455.63625 L 2036.9994 452.33625 L 2036.1994 448.83625 L 2035.6994 445.23625 L 2035.4994 441.53625 L 2035.6994 437.83625 L 2036.1994 434.23625 L 2036.9994 430.73625 L 2038.0994 427.33625 L 2039.3994 424.13625 L 2041.0994 421.03625 L 2042.9994 418.13625 L 2045.0994 415.33625 L 2047.3994 412.83625 L 2049.9994 410.43625 L 2052.6994 408.33625 L 2055.6994 406.43625 L 2058.7994 404.83625 L 2061.9994 403.43625 L 2065.3994 402.33625 L 2068.8994 401.53625 L 2072.4994 401.03625 L 2076.0994 400.83625 L 2173.2994 400.83625 L 2176.8994 401.03625 L 2180.4994 401.53625 L 2183.9994 402.33625 L 2187.3994 403.43625 L 2190.5994 404.83625 L 2193.6994 406.43625 L 2196.6994 408.33625 L 2199.3994 410.43625 L 2201.9994 412.83625 L 2204.2994 415.33625 L 2206.3994 418.13625 L 2208.2994 421.03625 L 2209.9994 424.13625 L 2211.3994 427.33625 L 2212.4994 430.73625 L 2213.2994 434.23625 L 2213.6994 437.83625 L 2213.8994 441.53625 L 2213.6994 445.23625 L 2213.2994 448.83625 L 2212.4994 452.33625 L 2211.3994 455.63625 L 2209.9994 458.93625 L 2208.2994 462.03625 L 2206.3994 464.93625 L 2204.2994 467.63625 L 2201.9994 470.23625 L 2199.3994 472.53625 L 2196.6994 474.73625 L 2193.6994 476.63625 L 2190.5994 478.23625 L 2187.3994 479.63625 L 2183.9994 480.73625 L 2180.4994 481.53625 L 2176.8994 482.03625 Z" fill="black" fill-opacity="0"/>
            </g>
            <g id="Graphic_52">
              <title>Path-80</title>
              <path d="M 2173.2994 482.13625 L 2076.0994 482.13625 L 2072.4994 482.03625 L 2068.8994 481.53625 L 2065.3994 480.73625 L 2061.9994 479.63625 L 2058.7994 478.23625 L 2055.6994 476.63625 L 2052.6994 474.73625 L 2049.9994 472.53625 L 2047.3994 470.23625 L 2045.0994 467.63625 L 2042.9994 464.93625 L 2041.0994 462.03625 L 2039.3994 458.93625 L 2038.0994 455.63625 L 2036.9994 452.33625 L 2036.1994 448.83625 L 2035.6994 445.23625 L 2035.4994 441.53625 L 2035.6994 437.83625 L 2036.1994 434.23625 L 2036.9994 430.73625 L 2038.0994 427.33625 L 2039.3994 424.13625 L 2041.0994 421.03625 L 2042.9994 418.13625 L 2045.0994 415.33625 L 2047.3994 412.83625 L 2049.9994 410.43625 L 2052.6994 408.33625 L 2055.6994 406.43625 L 2058.7994 404.83625 L 2061.9994 403.43625 L 2065.3994 402.33625 L 2068.8994 401.53625 L 2072.4994 401.03625 L 2076.0994 400.83625 L 2173.2994 400.83625 L 2176.8994 401.03625 L 2180.4994 401.53625 L 2183.9994 402.33625 L 2187.3994 403.43625 L 2190.5994 404.83625 L 2193.6994 406.43625 L 2196.6994 408.33625 L 2199.3994 410.43625 L 2201.9994 412.83625 L 2204.2994 415.33625 L 2206.3994 418.13625 L 2208.2994 421.03625 L 2209.9994 424.13625 L 2211.3994 427.33625 L 2212.4994 430.73625 L 2213.2994 434.23625 L 2213.6994 437.83625 L 2213.8994 441.53625 L 2213.6994 445.23625 L 2213.2994 448.83625 L 2212.4994 452.33625 L 2211.3994 455.63625 L 2209.9994 458.93625 L 2208.2994 462.03625 L 2206.3994 464.93625 L 2204.2994 467.63625 L 2201.9994 470.23625 L 2199.3994 472.53625 L 2196.6994 474.73625 L 2193.6994 476.63625 L 2190.5994 478.23625 L 2187.3994 479.63625 L 2183.9994 480.73625 L 2180.4994 481.53625 L 2176.8994 482.03625 Z" stroke="#eb4235" stroke-linecap="butt" stroke-linejoin="round" stroke-width="1.1"/>
            </g>
            <g id="Graphic_51">
              <text transform="translate(2065.9654 424.48625)" fill="#202124">
                <tspan font-family="Google Sans" font-size="13" fill="#202124" x="35.269" y="13">Highest</tspan>
                <tspan font-family="Google Sans" font-size="13" fill="#202124" x="1.5145" y="30">performance CPUs </tspan>
              </text>
            </g>
          </g>
          <g id="Group_46">
            <g id="Graphic_49">
              <title>Path-65</title>
              <path d="M 2369.1994 482.13625 L 2272.0994 482.13625 L 2268.3994 482.03625 L 2264.7994 481.53625 L 2261.2994 480.73625 L 2257.8994 479.63625 L 2254.6994 478.23625 L 2251.5994 476.63625 L 2248.6994 474.73625 L 2245.8994 472.53625 L 2243.3994 470.23625 L 2240.9994 467.63625 L 2238.8994 464.93625 L 2236.9994 462.03625 L 2235.3994 458.93625 L 2233.9994 455.63625 L 2232.8994 452.33625 L 2232.0994 448.83625 L 2231.5994 445.23625 L 2231.3994 441.53625 L 2231.5994 437.83625 L 2232.0994 434.23625 L 2232.8994 430.73625 L 2233.9994 427.33625 L 2235.3994 424.13625 L 2236.9994 421.03625 L 2238.8994 418.13625 L 2240.9994 415.33625 L 2243.3994 412.83625 L 2245.8994 410.43625 L 2248.6994 408.33625 L 2251.5994 406.43625 L 2254.6994 404.83625 L 2257.8994 403.43625 L 2261.2994 402.33625 L 2264.7994 401.53625 L 2268.3994 401.03625 L 2272.0994 400.83625 L 2369.1994 400.83625 L 2372.8994 401.03625 L 2376.4994 401.53625 L 2379.9994 402.33625 L 2383.3994 403.43625 L 2386.5994 404.83625 L 2389.6994 406.43625 L 2392.5994 408.33625 L 2395.3994 410.43625 L 2397.8994 412.83625 L 2400.2994 415.33625 L 2402.3994 418.13625 L 2404.2994 421.03625 L 2405.8994 424.13625 L 2407.2994 427.33625 L 2408.3994 430.73625 L 2409.1994 434.23625 L 2409.6994 437.83625 L 2409.8994 441.53625 L 2409.6994 445.23625 L 2409.1994 448.83625 L 2408.3994 452.33625 L 2407.2994 455.63625 L 2405.8994 458.93625 L 2404.2994 462.03625 L 2402.3994 464.93625 L 2400.2994 467.63625 L 2397.8994 470.23625 L 2395.3994 472.53625 L 2392.5994 474.73625 L 2389.6994 476.63625 L 2386.5994 478.23625 L 2383.3994 479.63625 L 2379.9994 480.73625 L 2376.4994 481.53625 L 2372.8994 482.03625 Z" fill="black" fill-opacity="0"/>
            </g>
            <g id="Graphic_48">
              <title>Path-66</title>
              <path d="M 2369.1994 482.13625 L 2272.0994 482.13625 L 2268.3994 482.03625 L 2264.7994 481.53625 L 2261.2994 480.73625 L 2257.8994 479.63625 L 2254.6994 478.23625 L 2251.5994 476.63625 L 2248.6994 474.73625 L 2245.8994 472.53625 L 2243.3994 470.23625 L 2240.9994 467.63625 L 2238.8994 464.93625 L 2236.9994 462.03625 L 2235.3994 458.93625 L 2233.9994 455.63625 L 2232.8994 452.33625 L 2232.0994 448.83625 L 2231.5994 445.23625 L 2231.3994 441.53625 L 2231.5994 437.83625 L 2232.0994 434.23625 L 2232.8994 430.73625 L 2233.9994 427.33625 L 2235.3994 424.13625 L 2236.9994 421.03625 L 2238.8994 418.13625 L 2240.9994 415.33625 L 2243.3994 412.83625 L 2245.8994 410.43625 L 2248.6994 408.33625 L 2251.5994 406.43625 L 2254.6994 404.83625 L 2257.8994 403.43625 L 2261.2994 402.33625 L 2264.7994 401.53625 L 2268.3994 401.03625 L 2272.0994 400.83625 L 2369.1994 400.83625 L 2372.8994 401.03625 L 2376.4994 401.53625 L 2379.9994 402.33625 L 2383.3994 403.43625 L 2386.5994 404.83625 L 2389.6994 406.43625 L 2392.5994 408.33625 L 2395.3994 410.43625 L 2397.8994 412.83625 L 2400.2994 415.33625 L 2402.3994 418.13625 L 2404.2994 421.03625 L 2405.8994 424.13625 L 2407.2994 427.33625 L 2408.3994 430.73625 L 2409.1994 434.23625 L 2409.6994 437.83625 L 2409.8994 441.53625 L 2409.6994 445.23625 L 2409.1994 448.83625 L 2408.3994 452.33625 L 2407.2994 455.63625 L 2405.8994 458.93625 L 2404.2994 462.03625 L 2402.3994 464.93625 L 2400.2994 467.63625 L 2397.8994 470.23625 L 2395.3994 472.53625 L 2392.5994 474.73625 L 2389.6994 476.63625 L 2386.5994 478.23625 L 2383.3994 479.63625 L 2379.9994 480.73625 L 2376.4994 481.53625 L 2372.8994 482.03625 Z" stroke="#eb4235" stroke-linecap="butt" stroke-linejoin="round" stroke-width="1.1"/>
            </g>
            <g id="Graphic_47">
              <text transform="translate(2269.1954 424.48625)" fill="#202124">
                <tspan font-family="Google Sans" font-size="13" fill="#202124" x="0" y="13">Most memory on</tspan>
                <tspan font-family="Google Sans" font-size="13" fill="#202124" x="1.1635" y="30">Compute Engine</tspan>
              </text>
            </g>
          </g>
          <g id="Group_42">
            <g id="Graphic_45">
              <title>Path-55</title>
              <path d="M 2565.0994 482.13625 L 2467.9994 482.13625 L 2464.2994 482.03625 L 2460.6994 481.53625 L 2457.2994 480.73625 L 2453.8994 479.63625 L 2450.5994 478.23625 L 2447.5994 476.63625 L 2444.5994 474.73625 L 2441.8994 472.53625 L 2439.2994 470.23625 L 2436.9994 467.63625 L 2434.7994 464.93625 L 2432.9994 462.03625 L 2431.2994 458.93625 L 2429.8994 455.63625 L 2428.7994 452.33625 L 2427.9994 448.83625 L 2427.5994 445.23625 L 2427.3994 441.53625 L 2427.5994 437.83625 L 2427.9994 434.23625 L 2428.7994 430.73625 L 2429.8994 427.33625 L 2431.2994 424.13625 L 2432.9994 421.03625 L 2434.7994 418.13625 L 2436.9994 415.33625 L 2439.2994 412.83625 L 2441.8994 410.43625 L 2444.5994 408.33625 L 2447.5994 406.43625 L 2450.5994 404.83625 L 2453.8994 403.43625 L 2457.2994 402.33625 L 2460.6994 401.53625 L 2464.2994 401.03625 L 2467.9994 400.83625 L 2565.0994 400.83625 L 2568.7994 401.03625 L 2572.3994 401.53625 L 2575.8994 402.33625 L 2579.2994 403.43625 L 2582.4994 404.83625 L 2585.5994 406.43625 L 2588.4994 408.33625 L 2591.2994 410.43625 L 2593.8994 412.83625 L 2596.1994 415.33625 L 2598.2994 418.13625 L 2600.1994 421.03625 L 2601.8994 424.13625 L 2603.1994 427.33625 L 2604.2994 430.73625 L 2605.0994 434.23625 L 2605.5994 437.83625 L 2605.7994 441.53625 L 2605.5994 445.23625 L 2605.0994 448.83625 L 2604.2994 452.33625 L 2603.1994 455.63625 L 2601.8994 458.93625 L 2600.1994 462.03625 L 2598.2994 464.93625 L 2596.1994 467.63625 L 2593.8994 470.23625 L 2591.2994 472.53625 L 2588.4994 474.73625 L 2585.5994 476.63625 L 2582.4994 478.23625 L 2579.2994 479.63625 L 2575.8994 480.73625 L 2572.3994 481.53625 L 2568.7994 482.03625 Z" fill="black" fill-opacity="0"/>
            </g>
            <g id="Graphic_44">
              <title>Path-56</title>
              <path d="M 2565.0994 482.13625 L 2467.9994 482.13625 L 2464.2994 482.03625 L 2460.6994 481.53625 L 2457.2994 480.73625 L 2453.8994 479.63625 L 2450.5994 478.23625 L 2447.5994 476.63625 L 2444.5994 474.73625 L 2441.8994 472.53625 L 2439.2994 470.23625 L 2436.9994 467.63625 L 2434.7994 464.93625 L 2432.9994 462.03625 L 2431.2994 458.93625 L 2429.8994 455.63625 L 2428.7994 452.33625 L 2427.9994 448.83625 L 2427.5994 445.23625 L 2427.3994 441.53625 L 2427.5994 437.83625 L 2427.9994 434.23625 L 2428.7994 430.73625 L 2429.8994 427.33625 L 2431.2994 424.13625 L 2432.9994 421.03625 L 2434.7994 418.13625 L 2436.9994 415.33625 L 2439.2994 412.83625 L 2441.8994 410.43625 L 2444.5994 408.33625 L 2447.5994 406.43625 L 2450.5994 404.83625 L 2453.8994 403.43625 L 2457.2994 402.33625 L 2460.6994 401.53625 L 2464.2994 401.03625 L 2467.9994 400.83625 L 2565.0994 400.83625 L 2568.7994 401.03625 L 2572.3994 401.53625 L 2575.8994 402.33625 L 2579.2994 403.43625 L 2582.4994 404.83625 L 2585.5994 406.43625 L 2588.4994 408.33625 L 2591.2994 410.43625 L 2593.8994 412.83625 L 2596.1994 415.33625 L 2598.2994 418.13625 L 2600.1994 421.03625 L 2601.8994 424.13625 L 2603.1994 427.33625 L 2604.2994 430.73625 L 2605.0994 434.23625 L 2605.5994 437.83625 L 2605.7994 441.53625 L 2605.5994 445.23625 L 2605.0994 448.83625 L 2604.2994 452.33625 L 2603.1994 455.63625 L 2601.8994 458.93625 L 2600.1994 462.03625 L 2598.2994 464.93625 L 2596.1994 467.63625 L 2593.8994 470.23625 L 2591.2994 472.53625 L 2588.4994 474.73625 L 2585.5994 476.63625 L 2582.4994 478.23625 L 2579.2994 479.63625 L 2575.8994 480.73625 L 2572.3994 481.53625 L 2568.7994 482.03625 Z" stroke="#eb4235" stroke-linecap="butt" stroke-linejoin="round" stroke-width="1.1"/>
            </g>
            <g id="Graphic_43">
              <text transform="translate(2457.3844 424.48625)" fill="#202124">
                <tspan font-family="Google Sans" font-size="13" fill="#202124" x="35.75" y="13">Highest</tspan>
                <tspan font-family="Google Sans" font-size="13" fill="#202124" x="1.5145" y="30">performance GPUs </tspan>
              </text>
            </g>
          </g>
          <g id="Graphic_35">
            <title>Path-84</title>
            <path d="M 2178.0994 706.5556 L 2071.2994 706.5556 L 2067.6994 706.3556 L 2064.2994 705.7556 L 2061.0994 704.7556 L 2057.9994 703.4556 L 2054.9994 701.7556 L 2052.2994 699.8556 L 2049.8994 697.6556 L 2047.5994 695.1556 L 2045.6994 692.4556 L 2044.0994 689.5556 L 2042.6994 686.4556 L 2041.7994 683.1556 L 2041.1994 679.7556 L 2040.9994 676.2556 L 2040.9994 556.0556 L 2041.1994 552.5556 L 2041.7994 549.1556 L 2042.6994 545.8556 L 2044.0994 542.7556 L 2045.6994 539.8556 L 2047.5994 537.1556 L 2049.8994 534.6556 L 2052.2994 532.4556 L 2054.9994 530.4556 L 2057.9994 528.8556 L 2061.0994 527.5556 L 2064.2994 526.5556 L 2067.6994 525.9556 L 2071.2994 525.7556 L 2178.0994 525.7556 L 2181.6994 525.9556 L 2185.0994 526.5556 L 2188.2994 527.5556 L 2191.3994 528.8556 L 2194.2994 530.4556 L 2197.0994 532.4556 L 2199.4994 534.6556 L 2201.7994 537.1556 L 2203.6994 539.8556 L 2205.2994 542.7556 L 2206.6994 545.8556 L 2207.5994 549.1556 L 2208.1994 552.5556 L 2208.3994 556.0556 L 2208.3994 676.2556 L 2208.1994 679.7556 L 2207.5994 683.1556 L 2206.6994 686.4556 L 2205.2994 689.5556 L 2203.6994 692.4556 L 2201.7994 695.1556 L 2199.4994 697.6556 L 2197.0994 699.8556 L 2194.2994 701.7556 L 2191.3994 703.4556 L 2188.2994 704.7556 L 2185.0994 705.7556 L 2181.6994 706.3556 Z" stroke="#eb4235" stroke-linecap="butt" stroke-linejoin="round" stroke-width="1.1"/>
          </g>
          <g id="Line_34">
            <title>Path-86</title>
            <line x1="2059.2994" y1="601.8556" x2="2119.1994" y2="601.8556" stroke="#f6ada9" stroke-linecap="butt" stroke-linejoin="round" stroke-width="1.1"/>
          </g>
          <g id="Line_33">
            <title>Path-88</title>
            <line x1="2059.2994" y1="630.1556" x2="2119.1994" y2="630.1556" stroke="#f6ada9" stroke-linecap="butt" stroke-linejoin="round" stroke-width="1.1"/>
          </g>
          <g id="Line_32">
            <title>Path-90</title>
            <line x1="2059.8994" y1="568.92835" x2="2189.4994" y2="568.92835" stroke="#eb4235" stroke-linecap="butt" stroke-linejoin="round" stroke-width="1.1"/>
          </g>
          <g id="Line_31">
            <title>Path-92</title>
            <line x1="2059.2994" y1="658.3556" x2="2119.1994" y2="658.3556" stroke="#f6ada9" stroke-linecap="butt" stroke-linejoin="round" stroke-width="1.1"/>
          </g>
          <g id="Graphic_30">
            <text transform="translate(2081.7334 539.7556)" fill="#202124">
              <tspan font-family="Google Sans" font-weight="bold" font-size="14" fill="#202124" x="35527137e-20" y="14">C3*, C2, C2D</tspan>
            </text>
          </g>
          <g id="Graphic_29">
            <text transform="translate(2058.644 583.8556)" fill="#202124">
              <tspan font-family="Google Sans" font-size="10" fill="#202124" x="0" y="10">HPC (EDA, Simulations etc)</tspan>
            </text>
          </g>
          <g id="Graphic_28">
            <text transform="translate(2058.644 611.3973)" fill="#202124">
              <tspan font-family="Google Sans" font-size="10" fill="#202124" x="0" y="10">AAA Gaming</tspan>
            </text>
          </g>
          <g id="Graphic_27">
            <text transform="translate(2058.644 639.8273)" fill="#202124">
              <tspan font-family="Google Sans" font-size="10" fill="#202124" x="0" y="10">Compute-bound apps</tspan>
            </text>
          </g>
          <g id="Graphic_24">
            <title>Path-67</title>
            <path d="M 2374.0994 707.113 L 2267.1994 707.113 L 2263.6994 706.913 L 2260.2994 706.313 L 2256.9994 705.313 L 2253.8994 704.013 L 2250.9994 702.313 L 2248.2994 700.413 L 2245.7994 698.213 L 2243.5994 695.713 L 2241.5994 693.013 L 2239.9994 690.113 L 2238.6994 687.013 L 2237.6994 683.713 L 2237.0994 680.313 L 2236.8994 676.813 L 2236.8994 556.613 L 2237.0994 553.113 L 2237.6994 549.713 L 2238.6994 546.413 L 2239.9994 543.313 L 2241.5994 540.413 L 2243.5994 537.713 L 2245.7994 535.213 L 2248.2994 533.013 L 2250.9994 531.013 L 2253.8994 529.413 L 2256.9994 528.113 L 2260.2994 527.113 L 2263.6994 526.513 L 2267.1994 526.313 L 2374.0994 526.313 L 2377.5994 526.513 L 2380.9994 527.113 L 2384.2994 528.113 L 2387.3994 529.413 L 2390.2994 531.013 L 2392.9994 533.013 L 2395.4994 535.213 L 2397.6994 537.713 L 2399.5994 540.413 L 2401.2994 543.313 L 2402.5994 546.413 L 2403.5994 549.713 L 2404.1994 553.113 L 2404.3994 556.613 L 2404.3994 676.813 L 2404.1994 680.313 L 2403.5994 683.713 L 2402.5994 687.013 L 2401.2994 690.113 L 2399.5994 693.013 L 2397.6994 695.713 L 2395.4994 698.213 L 2392.9994 700.413 L 2390.2994 702.313 L 2387.3994 704.013 L 2384.2994 705.313 L 2380.9994 706.313 L 2377.5994 706.913 Z" fill="black" fill-opacity="0"/>
          </g>
          <g id="Graphic_23">
            <title>Path-68</title>
            <path d="M 2374.0994 707.113 L 2267.1994 707.113 L 2263.6994 706.913 L 2260.2994 706.313 L 2256.9994 705.313 L 2253.8994 704.013 L 2250.9994 702.313 L 2248.2994 700.413 L 2245.7994 698.213 L 2243.5994 695.713 L 2241.5994 693.013 L 2239.9994 690.113 L 2238.6994 687.013 L 2237.6994 683.713 L 2237.0994 680.313 L 2236.8994 676.813 L 2236.8994 556.613 L 2237.0994 553.113 L 2237.6994 549.713 L 2238.6994 546.413 L 2239.9994 543.313 L 2241.5994 540.413 L 2243.5994 537.713 L 2245.7994 535.213 L 2248.2994 533.013 L 2250.9994 531.013 L 2253.8994 529.413 L 2256.9994 528.113 L 2260.2994 527.113 L 2263.6994 526.513 L 2267.1994 526.313 L 2374.0994 526.313 L 2377.5994 526.513 L 2380.9994 527.113 L 2384.2994 528.113 L 2387.3994 529.413 L 2390.2994 531.013 L 2392.9994 533.013 L 2395.4994 535.213 L 2397.6994 537.713 L 2399.5994 540.413 L 2401.2994 543.313 L 2402.5994 546.413 L 2403.5994 549.713 L 2404.1994 553.113 L 2404.3994 556.613 L 2404.3994 676.813 L 2404.1994 680.313 L 2403.5994 683.713 L 2402.5994 687.013 L 2401.2994 690.113 L 2399.5994 693.013 L 2397.6994 695.713 L 2395.4994 698.213 L 2392.9994 700.413 L 2390.2994 702.313 L 2387.3994 704.013 L 2384.2994 705.313 L 2380.9994 706.313 L 2377.5994 706.913 Z" stroke="#eb4235" stroke-linecap="butt" stroke-linejoin="round" stroke-width="1.1"/>
          </g>
          <g id="Line_22">
            <title>Path-70</title>
            <line x1="2255.0994" y1="601.8556" x2="2314.9994" y2="601.8556" stroke="#f6ada9" stroke-linecap="butt" stroke-linejoin="round" stroke-width="1.1"/>
          </g>
          <g id="Line_21">
            <title>Path-72</title>
            <line x1="2255.0994" y1="630.1556" x2="2314.9994" y2="630.1556" stroke="#f6ada9" stroke-linecap="butt" stroke-linejoin="round" stroke-width="1.1"/>
          </g>
          <g id="Line_20">
            <title>Path-74</title>
            <line x1="2255.6994" y1="569.04936" x2="2385.3994" y2="569.04936" stroke="#eb4235" stroke-linecap="butt" stroke-linejoin="round" stroke-width="1.1"/>
          </g>
          <g id="Line_19">
            <title>Path-76</title>
            <line x1="2255.0994" y1="658.3556" x2="2314.9994" y2="658.3556" stroke="#f6ada9" stroke-linecap="butt" stroke-linejoin="round" stroke-width="1.1"/>
          </g>
          <g id="Graphic_18">
            <text transform="translate(2297.4654 539.7556)" fill="#202124">
              <tspan font-family="Google Sans" font-weight="bold" font-size="14" fill="#202124" x="0" y="14">M1, M2</tspan>
            </text>
          </g>
          <g id="Graphic_17">
            <text transform="translate(2254.22 583.8556)" fill="#202124">
              <tspan font-family="Google Sans" font-size="10" fill="#202124" x="0" y="10">Largest </tspan>
              <tspan font-family="Google Sans" font-size="10" fill="#202124" y="10">Databases</tspan>
            </text>
          </g>
          <g id="Graphic_16">
            <text transform="translate(2254.22 611.3973)" fill="#202124">
              <tspan font-family="Google Sans" font-size="10" fill="#202124" x="0" y="10">SAP HANA</tspan>
            </text>
          </g>
          <g id="Graphic_15">
            <text transform="translate(2255.1194 639.8273)" fill="#202124">
              <tspan font-family="Google Sans" font-size="10" fill="#202124" x="0" y="10">Windows DB</tspan>
            </text>
          </g>
          <g id="Line_14">
            <title>Path-76</title>
            <line x1="2255.0994" y1="686.5556" x2="2314.9994" y2="686.5556" stroke="#f6ada9" stroke-linecap="butt" stroke-linejoin="round" stroke-width="1.1"/>
          </g>
          <g id="Graphic_13">
            <text transform="translate(2255.1194 668.0273)" fill="#202124">
              <tspan font-family="Google Sans" font-size="10" fill="#202124" x="0" y="10">Large in-memory cache</tspan>
            </text>
          </g>
          <g id="Graphic_12">
            <title>Path-58</title>
            <path d="M 2570.0494 708.2241 L 2463.1494 708.2241 L 2459.6494 708.0241 L 2456.2494 707.4241 L 2452.9494 706.4241 L 2449.8494 705.1241 L 2446.9494 703.4241 L 2444.2494 701.5241 L 2441.7494 699.3241 L 2439.5494 696.8241 L 2437.6494 694.1241 L 2435.9494 691.2241 L 2434.6494 688.1241 L 2433.7494 684.8241 L 2433.1494 681.4241 L 2432.8494 677.9241 L 2432.8494 557.7241 L 2433.1494 554.2241 L 2433.7494 550.8241 L 2434.6494 547.5241 L 2435.9494 544.4241 L 2437.6494 541.5241 L 2439.5494 538.8241 L 2441.7494 536.3241 L 2444.2494 534.1241 L 2446.9494 532.1241 L 2449.8494 530.5241 L 2452.9494 529.2241 L 2456.2494 528.2241 L 2459.6494 527.6241 L 2463.1494 527.4241 L 2570.0494 527.4241 L 2573.5494 527.6241 L 2576.9494 528.2241 L 2580.2494 529.2241 L 2583.3494 530.5241 L 2586.2494 532.1241 L 2588.9494 534.1241 L 2591.4494 536.3241 L 2593.6494 538.8241 L 2595.6494 541.5241 L 2597.2494 544.4241 L 2598.5494 547.5241 L 2599.5494 550.8241 L 2600.1494 554.2241 L 2600.3494 557.7241 L 2600.3494 677.9241 L 2600.1494 681.4241 L 2599.5494 684.8241 L 2598.5494 688.1241 L 2597.2494 691.2241 L 2595.6494 694.1241 L 2593.6494 696.8241 L 2591.4494 699.3241 L 2588.9494 701.5241 L 2586.2494 703.4241 L 2583.3494 705.1241 L 2580.2494 706.4241 L 2576.9494 707.4241 L 2573.5494 708.0241 Z" stroke="#eb4235" stroke-linecap="butt" stroke-linejoin="round" stroke-width="1.1"/>
          </g>
          <g id="Line_11">
            <title>Path-62</title>
            <line x1="2451.7494" y1="569.3241" x2="2581.4494" y2="569.3241" stroke="#eb4235" stroke-linecap="butt" stroke-linejoin="round" stroke-width="1.1"/>
          </g>
          <g id="Graphic_10">
            <text transform="translate(2507.6534 539.7556)" fill="#202124">
              <tspan font-family="Google Sans" font-weight="bold" font-size="14" fill="#202124" x="0" y="14">A2</tspan>
            </text>
          </g>
          <g id="Line_9">
            <title>Path-70</title>
            <line x1="2451.4807" y1="601.8556" x2="2511.3807" y2="601.8556" stroke="#f6ada9" stroke-linecap="butt" stroke-linejoin="round" stroke-width="1.1"/>
          </g>
          <g id="Line_8">
            <title>Path-72</title>
            <line x1="2451.4807" y1="630.1556" x2="2511.3807" y2="630.1556" stroke="#f6ada9" stroke-linecap="butt" stroke-linejoin="round" stroke-width="1.1"/>
          </g>
          <g id="Graphic_7">
            <text transform="translate(2450.6012 583.8556)" fill="#202124">
              <tspan font-family="Google Sans" font-size="10" fill="#202124" x="0" y="10">Machine Learning</tspan>
            </text>
          </g>
          <g id="Graphic_6">
            <text transform="translate(2450.6012 611.3973)" fill="#202124">
              <tspan font-family="Google Sans" font-size="10" fill="#202124" x="0" y="10">High Performance Computing</tspan>
            </text>
          </g>
          <g id="Graphic_5">
            <text transform="translate(2451.5007 639.8273)" fill="#202124">
              <tspan font-family="Google Sans" font-size="10" fill="#202124" x="0" y="10">Massively Parallel</tspan>
            </text>
          </g>
          <g id="Line_4">
            <title>Path-76</title>
            <line x1="2451.4807" y1="658.4556" x2="2511.3807" y2="658.4556" stroke="#f6ada9" stroke-linecap="butt" stroke-linejoin="round" stroke-width="1.1"/>
          </g>
          <g id="Graphic_129">
            <path d="M 1682.8888 237.47057 L 1682.8888 260.19233 C 1682.8888 260.46848 1683.1126 260.69233 1683.3888 260.69233 C 1683.6649 260.69233 1683.8888 260.46848 1683.8888 260.19233 L 1683.8888 237.47057 C 1683.8888 237.19443 1683.6649 236.97057 1683.3888 236.97057 C 1683.1126 236.97057 1682.8888 237.19443 1682.8888 237.47057 Z M 1683.3888 268.19233 L 1686.3888 260.19233 L 1680.3888 260.19233 Z M 1683.857 268.3679 L 1686.857 260.3679 L 1687.1103 259.69233 L 1686.3888 259.69233 L 1680.3888 259.69233 L 1679.6673 259.69233 L 1679.9206 260.3679 L 1682.9206 268.3679 L 1683.3888 269.61633 Z M 1682.9206 268.01677 L 1683.857 268.01677 L 1680.857 260.01677 L 1680.3888 260.69233 L 1686.3888 260.69233 L 1685.9206 260.01677 Z" fill="#616161"/>
          </g>
          <g id="Graphic_130">
            <path d="M 2323.1876 237.47057 L 2323.1876 260.19233 C 2323.1876 260.46848 2323.4115 260.69233 2323.6876 260.69233 C 2323.9638 260.69233 2324.1876 260.46848 2324.1876 260.19233 L 2324.1876 237.47057 C 2324.1876 237.19443 2323.9638 236.97057 2323.6876 236.97057 C 2323.4115 236.97057 2323.1876 237.19443 2323.1876 237.47057 Z M 2323.6876 268.19233 L 2326.6876 260.19233 L 2320.6876 260.19233 Z M 2324.1558 268.3679 L 2327.1558 260.3679 L 2327.409 259.69233 L 2326.6876 259.69233 L 2320.6876 259.69233 L 2319.966 259.69233 L 2320.2194 260.3679 L 2323.2194 268.3679 L 2323.6876 269.61633 Z M 2323.2194 268.01677 L 2324.1558 268.01677 L 2321.1558 260.01677 L 2320.6876 260.69233 L 2326.6876 260.69233 L 2326.2194 260.01677 Z" fill="#616161"/>
          </g>
          <g id="Graphic_131">
            <path d="M 2127.2734 259.71544 L 2127.2734 247.73552 L 2126.7734 248.23552 L 2516.6994 248.23552 L 2516.1994 247.73552 L 2516.1994 259.7307 C 2516.1994 260.00683 2516.4233 260.2307 2516.6994 260.2307 C 2516.9756 260.2307 2517.1994 260.00683 2517.1994 259.7307 L 2517.1994 247.73552 C 2517.1994 247.45938 2516.9756 247.23552 2516.6994 247.23552 L 2126.7734 247.23552 C 2126.4973 247.23552 2126.2734 247.45938 2126.2734 247.73552 L 2126.2734 259.71544 C 2126.2734 259.99158 2126.4973 260.21544 2126.7734 260.21544 C 2127.0496 260.21544 2127.2734 259.99158 2127.2734 259.71544 Z M 2516.6994 267.7307 L 2519.6994 259.7307 L 2513.6994 259.7307 Z M 2517.1676 267.90625 L 2520.1676 259.90625 L 2520.421 259.2307 L 2519.6994 259.2307 L 2513.6994 259.2307 L 2512.978 259.2307 L 2513.2313 259.90625 L 2516.2313 267.90625 L 2516.6994 269.1547 Z M 2516.2313 267.55513 L 2517.1676 267.55513 L 2514.1676 259.55513 L 2513.6994 260.2307 L 2519.6994 260.2307 L 2519.2313 259.55513 Z M 2126.7734 267.71544 L 2129.7734 259.71544 L 2123.7734 259.71544 Z M 2127.2416 267.891 L 2130.2416 259.891 L 2130.495 259.21544 L 2129.7734 259.21544 L 2123.7734 259.21544 L 2123.052 259.21544 L 2123.3052 259.891 L 2126.3052 267.891 L 2126.7734 269.13944 Z M 2126.3052 267.53988 L 2127.2416 267.53988 L 2124.2416 259.53988 L 2123.7734 260.21544 L 2129.7734 260.21544 L 2129.3052 259.53988 Z" fill="#5f6368"/>
          </g>
          <g id="Graphic_132">
            <path d="M 1486.9746 259.71544 L 1486.9746 247.73552 L 1486.4746 248.23552 L 1876.4006 248.23552 L 1875.9006 247.73552 L 1875.9006 259.7307 C 1875.9006 260.00683 1876.1244 260.2307 1876.4006 260.2307 C 1876.6767 260.2307 1876.9006 260.00683 1876.9006 259.7307 L 1876.9006 247.73552 C 1876.9006 247.45938 1876.6767 247.23552 1876.4006 247.23552 L 1486.4746 247.23552 C 1486.1984 247.23552 1485.9746 247.45938 1485.9746 247.73552 L 1485.9746 259.71544 C 1485.9746 259.99158 1486.1984 260.21544 1486.4746 260.21544 C 1486.7507 260.21544 1486.9746 259.99158 1486.9746 259.71544 Z M 1876.4006 267.7307 L 1879.4006 259.7307 L 1873.4006 259.7307 Z M 1876.8687 267.90625 L 1879.8687 259.90625 L 1880.122 259.2307 L 1879.4006 259.2307 L 1873.4006 259.2307 L 1872.679 259.2307 L 1872.9324 259.90625 L 1875.9324 267.90625 L 1876.4006 269.1547 Z M 1875.9324 267.55513 L 1876.8687 267.55513 L 1873.8687 259.55513 L 1873.4006 260.2307 L 1879.4006 260.2307 L 1878.9324 259.55513 Z M 1486.4746 267.71544 L 1489.4746 259.71544 L 1483.4746 259.71544 Z M 1486.9427 267.891 L 1489.9427 259.891 L 1490.196 259.21544 L 1489.4746 259.21544 L 1483.4746 259.21544 L 1482.753 259.21544 L 1483.0064 259.891 L 1486.0064 267.891 L 1486.4746 269.13944 Z M 1486.0064 267.53988 L 1486.9427 267.53988 L 1483.9427 259.53988 L 1483.4746 260.21544 L 1489.4746 260.21544 L 1489.0064 259.53988 Z" fill="#5f6368"/>
          </g>
          <g id="Graphic_133">
            <path d="M 1483.9006 365.2118 L 1483.9006 383.2607 C 1483.9006 383.53683 1484.1244 383.7607 1484.4006 383.7607 C 1484.6767 383.7607 1484.9006 383.53683 1484.9006 383.2607 L 1484.9006 365.2118 C 1484.9006 364.93568 1484.6767 364.7118 1484.4006 364.7118 C 1484.1244 364.7118 1483.9006 364.93568 1483.9006 365.2118 Z M 1484.4006 391.2607 L 1487.4006 383.2607 L 1481.4006 383.2607 Z M 1484.8687 391.43625 L 1487.8687 383.43625 L 1488.122 382.7607 L 1487.4006 382.7607 L 1481.4006 382.7607 L 1480.679 382.7607 L 1480.9324 383.43625 L 1483.9324 391.43625 L 1484.4006 392.6847 Z M 1483.9324 391.08512 L 1484.8687 391.08512 L 1481.8687 383.08512 L 1481.4006 383.7607 L 1487.4006 383.7607 L 1486.9324 383.08512 Z" fill="#616161"/>
          </g>
          <g id="Graphic_134">
            <path d="M 1679.8506 365.2118 L 1679.8506 383.2607 C 1679.8506 383.53683 1680.0744 383.7607 1680.3506 383.7607 C 1680.6267 383.7607 1680.8506 383.53683 1680.8506 383.2607 L 1680.8506 365.2118 C 1680.8506 364.93568 1680.6267 364.7118 1680.3506 364.7118 C 1680.0744 364.7118 1679.8506 364.93568 1679.8506 365.2118 Z M 1680.3506 391.2607 L 1683.3506 383.2607 L 1677.3506 383.2607 Z M 1680.8187 391.43625 L 1683.8187 383.43625 L 1684.072 382.7607 L 1683.3506 382.7607 L 1677.3506 382.7607 L 1676.629 382.7607 L 1676.8824 383.43625 L 1679.8824 391.43625 L 1680.3506 392.6847 Z M 1679.8824 391.08512 L 1680.8187 391.08512 L 1677.8187 383.08512 L 1677.3506 383.7607 L 1683.3506 383.7607 L 1682.8824 383.08512 Z" fill="#616161"/>
          </g>
          <g id="Graphic_135">
            <path d="M 1875.8006 365.2118 L 1875.8006 383.2607 C 1875.8006 383.53683 1876.0244 383.7607 1876.3006 383.7607 C 1876.5767 383.7607 1876.8006 383.53683 1876.8006 383.2607 L 1876.8006 365.2118 C 1876.8006 364.93568 1876.5767 364.7118 1876.3006 364.7118 C 1876.0244 364.7118 1875.8006 364.93568 1875.8006 365.2118 Z M 1876.3006 391.2607 L 1879.3006 383.2607 L 1873.3006 383.2607 Z M 1876.7687 391.43625 L 1879.7687 383.43625 L 1880.022 382.7607 L 1879.3006 382.7607 L 1873.3006 382.7607 L 1872.579 382.7607 L 1872.8324 383.43625 L 1875.8324 391.43625 L 1876.3006 392.6847 Z M 1875.8324 391.08512 L 1876.7687 391.08512 L 1873.7687 383.08512 L 1873.3006 383.7607 L 1879.3006 383.7607 L 1878.8324 383.08512 Z" fill="#616161"/>
          </g>
          <g id="Graphic_136">
            <path d="M 2124.1994 365.2118 L 2124.1994 383.2607 C 2124.1994 383.53683 2124.4233 383.7607 2124.6994 383.7607 C 2124.9756 383.7607 2125.1994 383.53683 2125.1994 383.2607 L 2125.1994 365.2118 C 2125.1994 364.93568 2124.9756 364.7118 2124.6994 364.7118 C 2124.4233 364.7118 2124.1994 364.93568 2124.1994 365.2118 Z M 2124.6994 391.2607 L 2127.6994 383.2607 L 2121.6994 383.2607 Z M 2125.1676 391.43625 L 2128.1676 383.43625 L 2128.421 382.7607 L 2127.6994 382.7607 L 2121.6994 382.7607 L 2120.978 382.7607 L 2121.2313 383.43625 L 2124.2313 391.43625 L 2124.6994 392.6847 Z M 2124.2313 391.08512 L 2125.1676 391.08512 L 2122.1676 383.08512 L 2121.6994 383.7607 L 2127.6994 383.7607 L 2127.2313 383.08512 Z" fill="#616161"/>
          </g>
          <g id="Graphic_137">
            <path d="M 2320.1494 365.2118 L 2320.1494 383.2607 C 2320.1494 383.53683 2320.3733 383.7607 2320.6494 383.7607 C 2320.9256 383.7607 2321.1494 383.53683 2321.1494 383.2607 L 2321.1494 365.2118 C 2321.1494 364.93568 2320.9256 364.7118 2320.6494 364.7118 C 2320.3733 364.7118 2320.1494 364.93568 2320.1494 365.2118 Z M 2320.6494 391.2607 L 2323.6494 383.2607 L 2317.6494 383.2607 Z M 2321.1176 391.43625 L 2324.1176 383.43625 L 2324.371 382.7607 L 2323.6494 382.7607 L 2317.6494 382.7607 L 2316.928 382.7607 L 2317.1813 383.43625 L 2320.1813 391.43625 L 2320.6494 392.6847 Z M 2320.1813 391.08512 L 2321.1176 391.08512 L 2318.1176 383.08512 L 2317.6494 383.7607 L 2323.6494 383.7607 L 2323.1813 383.08512 Z" fill="#616161"/>
          </g>
          <g id="Graphic_138">
            <path d="M 2515.5994 365.2118 L 2515.5994 383.2607 C 2515.5994 383.53683 2515.8233 383.7607 2516.0994 383.7607 C 2516.3756 383.7607 2516.5994 383.53683 2516.5994 383.2607 L 2516.5994 365.2118 C 2516.5994 364.93568 2516.3756 364.7118 2516.0994 364.7118 C 2515.8233 364.7118 2515.5994 364.93568 2515.5994 365.2118 Z M 2516.0994 391.2607 L 2519.0994 383.2607 L 2513.0994 383.2607 Z M 2516.5676 391.43625 L 2519.5676 383.43625 L 2519.821 382.7607 L 2519.0994 382.7607 L 2513.0994 382.7607 L 2512.378 382.7607 L 2512.6313 383.43625 L 2515.6313 391.43625 L 2516.0994 392.6847 Z M 2515.6313 391.08512 L 2516.5676 391.08512 L 2513.5676 383.08512 L 2513.0994 383.7607 L 2519.0994 383.7607 L 2518.6313 383.08512 Z" fill="#616161"/>
          </g>
          <g id="Graphic_139">
            <path d="M 1483.9006 489.9715 L 1483.9006 508.02037 C 1483.9006 508.2965 1484.1244 508.52037 1484.4006 508.52037 C 1484.6767 508.52037 1484.9006 508.2965 1484.9006 508.02037 L 1484.9006 489.9715 C 1484.9006 489.69536 1484.6767 489.4715 1484.4006 489.4715 C 1484.1244 489.4715 1483.9006 489.69536 1483.9006 489.9715 Z M 1484.4006 516.02037 L 1487.4006 508.02037 L 1481.4006 508.02037 Z M 1484.8687 516.1959 L 1487.8687 508.19593 L 1488.122 507.52037 L 1487.4006 507.52037 L 1481.4006 507.52037 L 1480.679 507.52037 L 1480.9324 508.19593 L 1483.9324 516.1959 L 1484.4006 517.4444 Z M 1483.9324 515.8448 L 1484.8687 515.8448 L 1481.8687 507.8448 L 1481.4006 508.52037 L 1487.4006 508.52037 L 1486.9324 507.8448 Z" fill="#616161"/>
          </g>
          <g id="Graphic_140">
            <path d="M 1679.8506 489.9715 L 1679.8506 508.02037 C 1679.8506 508.2965 1680.0744 508.52037 1680.3506 508.52037 C 1680.6267 508.52037 1680.8506 508.2965 1680.8506 508.02037 L 1680.8506 489.9715 C 1680.8506 489.69536 1680.6267 489.4715 1680.3506 489.4715 C 1680.0744 489.4715 1679.8506 489.69536 1679.8506 489.9715 Z M 1680.3506 516.02037 L 1683.3506 508.02037 L 1677.3506 508.02037 Z M 1680.8187 516.1959 L 1683.8187 508.19593 L 1684.072 507.52037 L 1683.3506 507.52037 L 1677.3506 507.52037 L 1676.629 507.52037 L 1676.8824 508.19593 L 1679.8824 516.1959 L 1680.3506 517.4444 Z M 1679.8824 515.8448 L 1680.8187 515.8448 L 1677.8187 507.8448 L 1677.3506 508.52037 L 1683.3506 508.52037 L 1682.8824 507.8448 Z" fill="#616161"/>
          </g>
          <g id="Graphic_141">
            <path d="M 1875.8006 489.9715 L 1875.8006 508.02037 C 1875.8006 508.2965 1876.0244 508.52037 1876.3006 508.52037 C 1876.5767 508.52037 1876.8006 508.2965 1876.8006 508.02037 L 1876.8006 489.9715 C 1876.8006 489.69536 1876.5767 489.4715 1876.3006 489.4715 C 1876.0244 489.4715 1875.8006 489.69536 1875.8006 489.9715 Z M 1876.3006 516.02037 L 1879.3006 508.02037 L 1873.3006 508.02037 Z M 1876.7687 516.1959 L 1879.7687 508.19593 L 1880.022 507.52037 L 1879.3006 507.52037 L 1873.3006 507.52037 L 1872.579 507.52037 L 1872.8324 508.19593 L 1875.8324 516.1959 L 1876.3006 517.4444 Z M 1875.8324 515.8448 L 1876.7687 515.8448 L 1873.7687 507.8448 L 1873.3006 508.52037 L 1879.3006 508.52037 L 1878.8324 507.8448 Z" fill="#616161"/>
          </g>
          <g id="Graphic_142">
            <path d="M 2124.1994 489.9715 L 2124.1994 508.02037 C 2124.1994 508.2965 2124.4233 508.52037 2124.6994 508.52037 C 2124.9756 508.52037 2125.1994 508.2965 2125.1994 508.02037 L 2125.1994 489.9715 C 2125.1994 489.69536 2124.9756 489.4715 2124.6994 489.4715 C 2124.4233 489.4715 2124.1994 489.69536 2124.1994 489.9715 Z M 2124.6994 516.02037 L 2127.6994 508.02037 L 2121.6994 508.02037 Z M 2125.1676 516.1959 L 2128.1676 508.19593 L 2128.421 507.52037 L 2127.6994 507.52037 L 2121.6994 507.52037 L 2120.978 507.52037 L 2121.2313 508.19593 L 2124.2313 516.1959 L 2124.6994 517.4444 Z M 2124.2313 515.8448 L 2125.1676 515.8448 L 2122.1676 507.8448 L 2121.6994 508.52037 L 2127.6994 508.52037 L 2127.2313 507.8448 Z" fill="#616161"/>
          </g>
          <g id="Graphic_143">
            <path d="M 2320.1494 489.9715 L 2320.1494 508.02037 C 2320.1494 508.2965 2320.3733 508.52037 2320.6494 508.52037 C 2320.9256 508.52037 2321.1494 508.2965 2321.1494 508.02037 L 2321.1494 489.9715 C 2321.1494 489.69536 2320.9256 489.4715 2320.6494 489.4715 C 2320.3733 489.4715 2320.1494 489.69536 2320.1494 489.9715 Z M 2320.6494 516.02037 L 2323.6494 508.02037 L 2317.6494 508.02037 Z M 2321.1176 516.1959 L 2324.1176 508.19593 L 2324.371 507.52037 L 2323.6494 507.52037 L 2317.6494 507.52037 L 2316.928 507.52037 L 2317.1813 508.19593 L 2320.1813 516.1959 L 2320.6494 517.4444 Z M 2320.1813 515.8448 L 2321.1176 515.8448 L 2318.1176 507.8448 L 2317.6494 508.52037 L 2323.6494 508.52037 L 2323.1813 507.8448 Z" fill="#616161"/>
          </g>
          <g id="Graphic_144">
            <path d="M 2515.5994 489.9715 L 2515.5994 508.02037 C 2515.5994 508.2965 2515.8233 508.52037 2516.0994 508.52037 C 2516.3756 508.52037 2516.5994 508.2965 2516.5994 508.02037 L 2516.5994 489.9715 C 2516.5994 489.69536 2516.3756 489.4715 2516.0994 489.4715 C 2515.8233 489.4715 2515.5994 489.69536 2515.5994 489.9715 Z M 2516.0994 516.02037 L 2519.0994 508.02037 L 2513.0994 508.02037 Z M 2516.5676 516.1959 L 2519.5676 508.19593 L 2519.821 507.52037 L 2519.0994 507.52037 L 2513.0994 507.52037 L 2512.378 507.52037 L 2512.6313 508.19593 L 2515.6313 516.1959 L 2516.0994 517.4444 Z M 2515.6313 515.8448 L 2516.5676 515.8448 L 2513.5676 507.8448 L 2513.0994 508.52037 L 2519.0994 508.52037 L 2518.6313 507.8448 Z" fill="#616161"/>
          </g>
        </g>
        <g id="Graphic_146">
          <text transform="translate(2040.5 719.0034)" fill="#202124">
            <tspan font-family="Google Sans" font-size="10" fill="#202124" x="0" y="10">* in private preview</tspan>
          </text>
        </g>
      </g>
    </g>
  </g>
</svg>
