<?xml version="1.0" encoding="UTF-8" standalone="no"?>
<!DOCTYPE svg PUBLIC "-//W3C//DTD SVG 1.1//EN" "http://www.w3.org/Graphics/SVG/1.1/DTD/svg11.dtd">
<svg version="1.1" xmlns:dc="http://purl.org/dc/elements/1.1/" xmlns:xl="http://www.w3.org/1999/xlink" xmlns="http://www.w3.org/2000/svg" viewBox="471 -354 819 499" width="819" height="499">
  <defs>
    <clipPath id="inner_stroke_clip_path">
      <path d="M 932.1548 -260.55294 L 1051.9548 -260.55294 L 1051.9548 -173.55294 L 932.1548 -173.55294 Z"/>
    </clipPath>
    <clipPath id="inner_stroke_clip_path_2">
      <path d="M 934.3476 -153.55294 L 1054.1476 -153.55294 L 1054.1476 -66.55294 L 934.3476 -66.55294 Z"/>
    </clipPath>
    <clipPath id="inner_stroke_clip_path_3">
      <path d="M 934.3476 -46.55294 L 1054.1476 -46.55294 L 1054.1476 40.44706 L 934.3476 40.44706 Z"/>
    </clipPath>
    <clipPath id="inner_stroke_clip_path_4">
      <path d="M 1116.1209 -260.55294 L 1243.6959 -260.55294 L 1243.6959 -204.55294 L 1116.1209 -204.55294 Z"/>
    </clipPath>
    <clipPath id="inner_stroke_clip_path_5">
      <path d="M 1116.1209 -108.35294 L 1243.6959 -108.35294 L 1243.6959 -52.35294 L 1116.1209 -52.35294 Z"/>
    </clipPath>
    <clipPath id="inner_stroke_clip_path_6">
      <path d="M 1116.1209 -184.35294 L 1243.6959 -184.35294 L 1243.6959 -128.35294 L 1116.1209 -128.35294 Z"/>
    </clipPath>
    <clipPath id="inner_stroke_clip_path_7">
      <path d="M 1116.1209 -32.35294 L 1243.6959 -32.35294 L 1243.6959 23.64706 L 1116.1209 23.64706 Z"/>
    </clipPath>
    <clipPath id="inner_stroke_clip_path_8">
      <path d="M 475.7452 -245.05294 L 570.8488 -245.05294 L 570.8488 -189.05294 L 475.7452 -189.05294 Z"/>
    </clipPath>
    <clipPath id="inner_stroke_clip_path_9">
      <path d="M 745.9488 -138.05294 L 871.9488 -138.05294 L 871.9488 -82.05294 L 745.9488 -82.05294 Z"/>
    </clipPath>
    <clipPath id="inner_stroke_clip_path_10">
      <path d="M 475.7452 -138.05294 L 570.8488 -138.05294 L 570.8488 -82.05294 L 475.7452 -82.05294 Z"/>
    </clipPath>
    <clipPath id="inner_stroke_clip_path_11">
      <path d="M 745.9488 -245.05294 L 871.9488 -245.05294 L 871.9488 -189.05294 L 745.9488 -189.05294 Z"/>
    </clipPath>
    <clipPath id="inner_stroke_clip_path_12">
      <path d="M 745.9488 -31.05294 L 871.9488 -31.05294 L 871.9488 24.94706 L 745.9488 24.94706 Z"/>
    </clipPath>
    <clipPath id="inner_stroke_clip_path_13">
      <path d="M 630.8452 -138.05294 L 725.9488 -138.05294 L 725.9488 -82.05294 L 630.8452 -82.05294 Z"/>
    </clipPath>
  </defs>
  <g id="Final_Standard_cluster_architecture_1" fill="none" fill-opacity="1" stroke-opacity="1" stroke="none" stroke-dasharray="none">
    <title>Final_Standard cluster architecture 1</title>
    <g id="Final_Standard_cluster_architecture_1_Layer_1">
      <title>Layer 1</title>
      <g id="Group_2718">
        <g id="Group_1645">
          <title>Graphic_277</title>
          <g id="Graphic_1647"/>
          <g id="Graphic_1646">
            <rect x="589.6452" y="100.44706" width="282.30356" height="40" stroke="#d6d6d6" stroke-linecap="round" stroke-linejoin="round" stroke-width="1"/>
          </g>
        </g>
        <g id="Graphic_1072">
          <title>zone external - grey</title>
          <rect x="589.6452" y="-349.44706" width="695.6095" height="429.8941" fill="#eaedef"/>
          <text transform="translate(599.6452 -334.44706)" fill="#757575">
            <tspan font-family="Roboto" font-size="10" fill="#757575" x="0" y="9">GKE Cluster</tspan>
          </text>
        </g>
        <g id="Graphic_1076">
          <title>zone internal - blue</title>
          <rect x="610.8452" y="-304.55294" width="281.10356" height="365" fill="#e1f6fe"/>
          <rect x="610.8452" y="-304.55294" width="281.10356" height="365" stroke="white" stroke-linecap="round" stroke-linejoin="round" stroke-width="2"/>
          <text transform="translate(620.8452 -289.55294)" fill="#757575">
            <tspan font-family="Roboto" font-size="10" fill="#757575" x="0" y="9">Control Plane</tspan>
          </text>
        </g>
        <g id="Group_1883">
          <g id="Graphic_1881">
            <title>zone internal - yellow</title>
            <rect x="912.0512" y="-304.55294" width="162.09644" height="365" fill="#fef7e0"/>
            <rect x="912.0512" y="-304.55294" width="162.09644" height="365" stroke="white" stroke-linecap="round" stroke-linejoin="round" stroke-width="2"/>
            <text transform="translate(948.0512 -289.55294)" fill="#757575">
              <tspan font-family="Roboto" font-size="10" fill="#757575" x="0" y="9">Nodes</tspan>
            </text>
          </g>
          <g id="Group_1788">
            <title>Graphic_180</title>
            <g id="Graphic_1789">
              <path d="M 925.6633 -283.31085 C 925.2001 -283.31085 924.8211 -282.9319 924.8211 -282.46872 C 924.8211 -282.00557 925.2001 -281.62662 925.6633 -281.62662 C 926.1265 -281.62662 926.5054 -282.00557 926.5054 -282.46872 C 926.5054 -282.9319 926.1265 -283.31085 925.6633 -283.31085 Z M 925.6633 -279.9424 C 925.2001 -279.9424 924.8211 -279.56346 924.8211 -279.1003 C 924.8211 -278.63715 925.2001 -278.2582 925.6633 -278.2582 C 926.1265 -278.2582 926.5054 -278.63715 926.5054 -279.1003 C 926.5054 -279.56346 926.1265 -279.9424 925.6633 -279.9424 Z M 925.6633 -286.67925 C 925.2001 -286.67925 924.8211 -286.3003 924.8211 -285.83713 C 924.8211 -285.374 925.2001 -284.99504 925.6633 -284.99504 C 926.1265 -284.99504 926.5054 -285.374 926.5054 -285.83713 C 926.5054 -286.3003 926.1265 -286.67925 925.6633 -286.67925 Z M 923.137 -286.2582 C 922.9012 -286.2582 922.7159 -286.07294 922.7159 -285.83713 C 922.7159 -285.60136 922.9012 -285.4161 923.137 -285.4161 C 923.3728 -285.4161 923.558 -285.60136 923.558 -285.83713 C 923.558 -286.07294 923.3728 -286.2582 923.137 -286.2582 Z M 925.6633 -290.04766 C 925.2001 -290.04766 924.8211 -289.66875 924.8211 -289.20557 C 924.8211 -288.7424 925.2001 -288.36346 925.6633 -288.36346 C 926.1265 -288.36346 926.5054 -288.7424 926.5054 -289.20557 C 926.5054 -289.66875 926.1265 -290.04766 925.6633 -290.04766 Z M 938.2949 -285.4161 C 938.5307 -285.4161 938.7159 -285.60136 938.7159 -285.83713 C 938.7159 -286.07294 938.5307 -286.2582 938.2949 -286.2582 C 938.059 -286.2582 937.8738 -286.07294 937.8738 -285.83713 C 937.8738 -285.60136 938.059 -285.4161 938.2949 -285.4161 Z M 932.4001 -288.36346 C 932.8633 -288.36346 933.2422 -288.7424 933.2422 -289.20557 C 933.2422 -289.66875 932.8633 -290.04766 932.4001 -290.04766 C 931.937 -290.04766 931.558 -289.66875 931.558 -289.20557 C 931.558 -288.7424 931.937 -288.36346 932.4001 -288.36346 Z M 932.4001 -291.31085 C 932.6359 -291.31085 932.8211 -291.4961 932.8211 -291.7319 C 932.8211 -291.96768 932.6359 -292.15294 932.4001 -292.15294 C 932.1643 -292.15294 931.9791 -291.96768 931.9791 -291.7319 C 931.9791 -291.4961 932.1643 -291.31085 932.4001 -291.31085 Z M 923.137 -282.8898 C 922.9012 -282.8898 922.7159 -282.70453 922.7159 -282.46872 C 922.7159 -282.23294 922.9012 -282.04766 923.137 -282.04766 C 923.3728 -282.04766 923.558 -282.23294 923.558 -282.46872 C 923.558 -282.70453 923.3728 -282.8898 923.137 -282.8898 Z M 929.0317 -276.99504 C 928.7959 -276.99504 928.6106 -276.80978 928.6106 -276.574 C 928.6106 -276.33822 928.7959 -276.15294 929.0317 -276.15294 C 929.2675 -276.15294 929.4527 -276.33822 929.4527 -276.574 C 929.4527 -276.80978 929.2675 -276.99504 929.0317 -276.99504 Z M 929.0317 -291.31085 C 929.2675 -291.31085 929.4527 -291.4961 929.4527 -291.7319 C 929.4527 -291.96768 929.2675 -292.15294 929.0317 -292.15294 C 928.7959 -292.15294 928.6106 -291.96768 928.6106 -291.7319 C 928.6106 -291.4961 928.7959 -291.31085 929.0317 -291.31085 Z M 929.0317 -288.36346 C 929.4949 -288.36346 929.8738 -288.7424 929.8738 -289.20557 C 929.8738 -289.66875 929.4949 -290.04766 929.0317 -290.04766 C 928.5685 -290.04766 928.1896 -289.66875 928.1896 -289.20557 C 928.1896 -288.7424 928.5685 -288.36346 929.0317 -288.36346 Z M 929.0317 -283.7319 C 928.3327 -283.7319 927.7686 -283.16766 927.7686 -282.46872 C 927.7686 -281.7698 928.3327 -281.20557 929.0317 -281.20557 C 929.7306 -281.20557 930.2949 -281.7698 930.2949 -282.46872 C 930.2949 -283.16766 929.7306 -283.7319 929.0317 -283.7319 Z M 935.7686 -283.31085 C 935.3054 -283.31085 934.9264 -282.9319 934.9264 -282.46872 C 934.9264 -282.00557 935.3054 -281.62662 935.7686 -281.62662 C 936.2317 -281.62662 936.6107 -282.00557 936.6107 -282.46872 C 936.6107 -282.9319 936.2317 -283.31085 935.7686 -283.31085 Z M 935.7686 -279.9424 C 935.3054 -279.9424 934.9264 -279.56346 934.9264 -279.1003 C 934.9264 -278.63715 935.3054 -278.2582 935.7686 -278.2582 C 936.2317 -278.2582 936.6107 -278.63715 936.6107 -279.1003 C 936.6107 -279.56346 936.2317 -279.9424 935.7686 -279.9424 Z M 935.7686 -286.67925 C 935.3054 -286.67925 934.9264 -286.3003 934.9264 -285.83713 C 934.9264 -285.374 935.3054 -284.99504 935.7686 -284.99504 C 936.2317 -284.99504 936.6107 -285.374 936.6107 -285.83713 C 936.6107 -286.3003 936.2317 -286.67925 935.7686 -286.67925 Z M 935.7686 -290.04766 C 935.3054 -290.04766 934.9264 -289.66875 934.9264 -289.20557 C 934.9264 -288.7424 935.3054 -288.36346 935.7686 -288.36346 C 936.2317 -288.36346 936.6107 -288.7424 936.6107 -289.20557 C 936.6107 -289.66875 936.2317 -290.04766 935.7686 -290.04766 Z M 938.2949 -282.8898 C 938.059 -282.8898 937.8738 -282.70453 937.8738 -282.46872 C 937.8738 -282.23294 938.059 -282.04766 938.2949 -282.04766 C 938.5307 -282.04766 938.7159 -282.23294 938.7159 -282.46872 C 938.7159 -282.70453 938.5307 -282.8898 938.2949 -282.8898 Z M 932.4001 -279.9424 C 931.937 -279.9424 931.558 -279.56346 931.558 -279.1003 C 931.558 -278.63715 931.937 -278.2582 932.4001 -278.2582 C 932.8633 -278.2582 933.2422 -278.63715 933.2422 -279.1003 C 933.2422 -279.56346 932.8633 -279.9424 932.4001 -279.9424 Z M 932.4001 -276.99504 C 932.1643 -276.99504 931.9791 -276.80978 931.9791 -276.574 C 931.9791 -276.33822 932.1643 -276.15294 932.4001 -276.15294 C 932.6359 -276.15294 932.8211 -276.33822 932.8211 -276.574 C 932.8211 -276.80978 932.6359 -276.99504 932.4001 -276.99504 Z M 929.0317 -287.1003 C 928.3327 -287.1003 927.7686 -286.5361 927.7686 -285.83713 C 927.7686 -285.1382 928.3327 -284.574 929.0317 -284.574 C 929.7306 -284.574 930.2949 -285.1382 930.2949 -285.83713 C 930.2949 -286.5361 929.7306 -287.1003 929.0317 -287.1003 Z M 929.0317 -279.9424 C 928.5685 -279.9424 928.1896 -279.56346 928.1896 -279.1003 C 928.1896 -278.63715 928.5685 -278.2582 929.0317 -278.2582 C 929.4949 -278.2582 929.8738 -278.63715 929.8738 -279.1003 C 929.8738 -279.56346 929.4949 -279.9424 929.0317 -279.9424 Z M 932.4001 -283.7319 C 931.7011 -283.7319 931.137 -283.16766 931.137 -282.46872 C 931.137 -281.7698 931.7011 -281.20557 932.4001 -281.20557 C 933.0991 -281.20557 933.6633 -281.7698 933.6633 -282.46872 C 933.6633 -283.16766 933.0991 -283.7319 932.4001 -283.7319 Z M 932.4001 -287.1003 C 931.7011 -287.1003 931.137 -286.5361 931.137 -285.83713 C 931.137 -285.1382 931.7011 -284.574 932.4001 -284.574 C 933.0991 -284.574 933.6633 -285.1382 933.6633 -285.83713 C 933.6633 -286.5361 933.0991 -287.1003 932.4001 -287.1003 Z" fill="#4186f4"/>
            </g>
          </g>
        </g>
        <g id="Group_2704">
          <g id="Graphic_902">
            <rect x="932.1548" y="-260.55294" width="119.80001" height="87" fill="white"/>
            <rect x="932.1548" y="-260.55294" width="119.80001" height="87" stroke="#dfdfdf" stroke-linecap="round" stroke-linejoin="round" stroke-width="2" clip-path="url(#inner_stroke_clip_path)"/>
          </g>
          <g id="Group_903">
            <g id="Group_704">
              <title>Graphic_169</title>
              <g id="Graphic_705">
                <path d="M 950.2481 -239.7014 L 950.2481 -226.60244 L 961.5558 -220.05294 L 961.5558 -236.12994 Z" fill="#4285f4"/>
              </g>
            </g>
            <g id="Group_702">
              <title>Graphic_167</title>
              <g id="Graphic_703">
                <path d="M 974.0614 -239.7014 L 974.0614 -226.60244 L 962.7425 -220.05294 L 962.7425 -236.12994 Z" fill="#669df6"/>
              </g>
            </g>
            <g id="Group_700">
              <title>Graphic_165</title>
              <g id="Graphic_701">
                <path d="M 962.1491 -245.05294 L 950.2481 -240.88814 L 962.1491 -237.17114 L 974.0614 -240.88814 Z" fill="#aecbfa"/>
              </g>
            </g>
          </g>
          <g id="Graphic_901">
            <rect x="948.1548" y="-206.55294" width="87.80001" height="1" fill="#dfdfdf"/>
          </g>
          <g id="Graphic_895">
            <text transform="translate(966.9786 -197.55294)" fill="#757575">
              <tspan font-family="Roboto" font-size="10" fill="#757575" x="0" y="9">Containers</tspan>
            </text>
          </g>
          <g id="Graphic_893">
            <text transform="translate(985.1548 -239.55294)" fill="#212121">
              <tspan font-family="Roboto" font-size="12" fill="#212121" x="0" y="11">User Pod</tspan>
            </text>
          </g>
        </g>
        <g id="Group_1022">
          <g id="Graphic_1033">
            <rect x="934.3476" y="-153.55294" width="119.80001" height="87" fill="white"/>
            <rect x="934.3476" y="-153.55294" width="119.80001" height="87" stroke="#dfdfdf" stroke-linecap="round" stroke-linejoin="round" stroke-width="2" clip-path="url(#inner_stroke_clip_path_2)"/>
          </g>
          <g id="Group_1026">
            <g id="Group_1031">
              <title>Graphic_169</title>
              <g id="Graphic_1032">
                <path d="M 952.441 -132.70139 L 952.441 -119.60244 L 963.7487 -113.05294 L 963.7487 -129.12994 Z" fill="#4285f4"/>
              </g>
            </g>
            <g id="Group_1029">
              <title>Graphic_167</title>
              <g id="Graphic_1030">
                <path d="M 976.2543 -132.70139 L 976.2543 -119.60244 L 964.9354 -113.05294 L 964.9354 -129.12994 Z" fill="#669df6"/>
              </g>
            </g>
            <g id="Group_1027">
              <title>Graphic_165</title>
              <g id="Graphic_1028">
                <path d="M 964.342 -138.05294 L 952.441 -133.88814 L 964.342 -130.17114 L 976.2543 -133.88814 Z" fill="#aecbfa"/>
              </g>
            </g>
          </g>
          <g id="Graphic_1025">
            <rect x="950.3476" y="-99.55294" width="87.80001" height="1" fill="#dfdfdf"/>
          </g>
          <g id="Graphic_1024">
            <text transform="translate(969.1714 -90.55294)" fill="#757575">
              <tspan font-family="Roboto" font-size="10" fill="#757575" x="0" y="9">Containers</tspan>
            </text>
          </g>
          <g id="Graphic_1023">
            <text transform="translate(987.3476 -132.55294)" fill="#212121">
              <tspan font-family="Roboto" font-size="12" fill="#212121" x="0" y="11">User Pod</tspan>
            </text>
          </g>
        </g>
        <g id="Group_1034">
          <g id="Graphic_1045">
            <rect x="934.3476" y="-46.55294" width="119.80001" height="87" fill="white"/>
            <rect x="934.3476" y="-46.55294" width="119.80001" height="87" stroke="#dfdfdf" stroke-linecap="round" stroke-linejoin="round" stroke-width="2" clip-path="url(#inner_stroke_clip_path_3)"/>
          </g>
          <g id="Group_1038">
            <g id="Group_1043">
              <title>Graphic_169</title>
              <g id="Graphic_1044">
                <path d="M 952.441 -25.70139 L 952.441 -12.60244 L 963.7487 -6.0529405 L 963.7487 -22.12994 Z" fill="#4285f4"/>
              </g>
            </g>
            <g id="Group_1041">
              <title>Graphic_167</title>
              <g id="Graphic_1042">
                <path d="M 976.2543 -25.70139 L 976.2543 -12.60244 L 964.9354 -6.0529405 L 964.9354 -22.12994 Z" fill="#669df6"/>
              </g>
            </g>
            <g id="Group_1039">
              <title>Graphic_165</title>
              <g id="Graphic_1040">
                <path d="M 964.342 -31.05294 L 952.441 -26.88814 L 964.342 -23.17114 L 976.2543 -26.88814 Z" fill="#aecbfa"/>
              </g>
            </g>
          </g>
          <g id="Graphic_1037">
            <rect x="950.3476" y="7.4470595" width="87.80001" height="1" fill="#dfdfdf"/>
          </g>
          <g id="Graphic_1036">
            <text transform="translate(969.1714 16.44706)" fill="#757575">
              <tspan font-family="Roboto" font-size="10" fill="#757575" x="0" y="9">Containers</tspan>
            </text>
          </g>
          <g id="Graphic_1035">
            <text transform="translate(987.3476 -25.55294)" fill="#212121">
              <tspan font-family="Roboto" font-size="12" fill="#212121" x="0" y="11">User Pod</tspan>
            </text>
          </g>
        </g>
        <g id="Graphic_1887">
          <title>zone internal - Green</title>
          <rect x="1094.562" y="-304.55294" width="170.69279" height="365" fill="#e2f3ec"/>
          <rect x="1094.562" y="-304.55294" width="170.69279" height="365" stroke="white" stroke-linecap="round" stroke-linejoin="round" stroke-width="2"/>
          <text transform="translate(1104.562 -289.55294)" fill="#757575">
            <tspan font-family="Roboto" font-size="10" fill="#757575" x="0" y="9">Connected Google Cloud Services</tspan>
          </text>
        </g>
        <g id="Group_935">
          <g id="Graphic_933">
            <rect x="1116.1209" y="-260.55294" width="127.57501" height="56" fill="white"/>
            <rect x="1116.1209" y="-260.55294" width="127.57501" height="56" stroke="#dfdfdf" stroke-linecap="round" stroke-linejoin="round" stroke-width="2" clip-path="url(#inner_stroke_clip_path_4)"/>
            <text transform="translate(1167.1209 -246.55294)" fill="#212121">
              <tspan font-family="Roboto" font-size="12" fill="#212121" x="0" y="11">VPC</tspan>
              <tspan font-family="Roboto" font-size="12" fill="#212121" x="0" y="25">Networking</tspan>
            </text>
          </g>
          <g id="Group_934">
            <g id="Group_781">
              <title>Graphic_250</title>
              <g id="Graphic_782">
                <rect x="1150.9209" y="-244.55294" width="7.2" height="7.2" fill="#aecbfa"/>
              </g>
            </g>
            <g id="Group_779">
              <title>Graphic_248</title>
              <g id="Graphic_780">
                <rect x="1154.5209" y="-244.55294" width="3.6" height="7.2" fill="#669df6"/>
              </g>
            </g>
            <g id="Group_777">
              <title>Graphic_246</title>
              <g id="Graphic_778">
                <rect x="1150.9209" y="-227.75294" width="7.2" height="7.2" fill="#aecbfa"/>
              </g>
            </g>
            <g id="Group_775">
              <title>Graphic_244</title>
              <g id="Graphic_776">
                <rect x="1154.5209" y="-227.75294" width="3.6" height="7.2" fill="#669df6"/>
              </g>
            </g>
            <g id="Group_773">
              <title>Graphic_242</title>
              <g id="Graphic_774">
                <rect x="1134.1209" y="-244.55294" width="7.2" height="7.2" fill="#aecbfa"/>
              </g>
            </g>
            <g id="Group_771">
              <title>Graphic_240</title>
              <g id="Graphic_772">
                <rect x="1137.7209" y="-244.55294" width="3.6" height="7.2" fill="#669df6"/>
              </g>
            </g>
            <g id="Group_769">
              <title>Graphic_238</title>
              <g id="Graphic_770">
                <rect x="1134.1209" y="-227.75294" width="7.2" height="7.2" fill="#aecbfa"/>
              </g>
            </g>
            <g id="Group_767">
              <title>Graphic_236</title>
              <g id="Graphic_768">
                <rect x="1137.7209" y="-227.75294" width="3.6" height="7.2" fill="#669df6"/>
              </g>
            </g>
            <g id="Group_765">
              <title>Graphic_234</title>
              <g id="Graphic_766">
                <rect x="1141.3209" y="-242.15294" width="9.6" height="2.4" fill="#669df6"/>
              </g>
            </g>
            <g id="Group_763">
              <title>Graphic_232</title>
              <g id="Graphic_764">
                <rect x="1141.3209" y="-225.35294" width="9.6" height="2.4" fill="#669df6"/>
              </g>
            </g>
            <g id="Group_761">
              <title>Graphic_230</title>
              <g id="Graphic_762">
                <rect x="1153.3209" y="-237.35294" width="2.4" height="9.6" fill="#669df6"/>
              </g>
            </g>
            <g id="Group_759">
              <title>Graphic_228</title>
              <g id="Graphic_760">
                <rect x="1136.5209" y="-237.35294" width="2.4" height="9.6" fill="#669df6"/>
              </g>
            </g>
            <g id="Group_757">
              <title>Graphic_226</title>
              <g id="Graphic_758">
                <rect x="1136.5209" y="-237.35294" width="2.4" height="2.4" fill="#4285f4"/>
              </g>
            </g>
            <g id="Group_755">
              <title>Graphic_224</title>
              <g id="Graphic_756">
                <rect x="1153.3209" y="-237.35294" width="2.4" height="2.4" fill="#4285f4"/>
              </g>
            </g>
            <g id="Group_753">
              <title>Graphic_222</title>
              <g id="Graphic_754">
                <rect x="1141.3209" y="-242.15294" width="2.4" height="2.4" fill="#4285f4"/>
              </g>
            </g>
            <g id="Group_751">
              <title>Graphic_220</title>
              <g id="Graphic_752">
                <rect x="1141.3209" y="-225.35294" width="2.4" height="2.4" fill="#4285f4"/>
              </g>
            </g>
          </g>
        </g>
        <g id="Group_1888">
          <g id="Graphic_1016">
            <rect x="1116.1209" y="-108.35294" width="127.57501" height="56" fill="white"/>
            <rect x="1116.1209" y="-108.35294" width="127.57501" height="56" stroke="#dfdfdf" stroke-linecap="round" stroke-linejoin="round" stroke-width="2" clip-path="url(#inner_stroke_clip_path_5)"/>
            <text transform="translate(1167.1209 -94.35294)" fill="#212121">
              <tspan font-family="Roboto" font-size="12" fill="#212121" x="0" y="11">Load</tspan>
              <tspan font-family="Roboto" font-size="12" fill="#212121" x="0" y="25">Balancer</tspan>
            </text>
          </g>
          <g id="Group_1017">
            <g id="Group_745">
              <title>Graphic_212</title>
              <g id="Graphic_746">
                <rect x="1154.2209" y="-79.85294" width="2.4" height="4.8" fill="#669df6"/>
              </g>
            </g>
            <g id="Group_743">
              <title>Graphic_210</title>
              <g id="Graphic_744">
                <rect x="1145.8209" y="-79.85294" width="2.4" height="4.8" fill="#669df6"/>
              </g>
            </g>
            <g id="Group_741">
              <title>Graphic_208</title>
              <g id="Graphic_742">
                <rect x="1137.4209" y="-79.85294" width="2.4" height="4.8" fill="#669df6"/>
              </g>
            </g>
            <g id="Group_739">
              <title>Graphic_206</title>
              <g id="Graphic_740">
                <rect x="1145.8209" y="-85.85294" width="2.4" height="4.8" fill="#4285f4"/>
              </g>
            </g>
            <g id="Group_737">
              <title>Graphic_204</title>
              <g id="Graphic_738">
                <rect x="1137.4209" y="-81.05294" width="19.2" height="2.4" fill="#669df6"/>
              </g>
            </g>
            <g id="Group_735">
              <title>Graphic_202</title>
              <g id="Graphic_736">
                <rect x="1139.8209" y="-91.85294" width="14.4" height="6" fill="#aecbfa"/>
              </g>
            </g>
            <g id="Group_733">
              <title>Graphic_200</title>
              <g id="Graphic_734">
                <rect x="1147.0209" y="-91.85294" width="7.2" height="6" fill="#669df6"/>
              </g>
            </g>
            <g id="Group_731">
              <title>Graphic_198</title>
              <g id="Graphic_732">
                <rect x="1151.8209" y="-75.05294" width="7.2" height="7.2" fill="#aecbfa"/>
              </g>
            </g>
            <g id="Group_729">
              <title>Graphic_196</title>
              <g id="Graphic_730">
                <rect x="1135.0209" y="-75.05294" width="7.2" height="7.2" fill="#aecbfa"/>
              </g>
            </g>
            <g id="Group_727">
              <title>Graphic_194</title>
              <g id="Graphic_728">
                <rect x="1138.6209" y="-75.05294" width="3.6" height="7.2" fill="#669df6"/>
              </g>
            </g>
            <g id="Group_725">
              <title>Graphic_192</title>
              <g id="Graphic_726">
                <rect x="1143.4209" y="-75.05294" width="7.2" height="7.2" fill="#aecbfa"/>
              </g>
            </g>
            <g id="Group_723">
              <title>Graphic_190</title>
              <g id="Graphic_724">
                <rect x="1147.0209" y="-75.05294" width="3.6" height="7.2" fill="#669df6"/>
              </g>
            </g>
            <g id="Group_721">
              <title>Graphic_188</title>
              <g id="Graphic_722">
                <rect x="1155.4209" y="-75.05294" width="3.6" height="7.2" fill="#669df6"/>
              </g>
            </g>
          </g>
        </g>
        <g id="Group_1007">
          <g id="Graphic_1005">
            <rect x="1116.1209" y="-184.35294" width="127.57501" height="56" fill="white"/>
            <rect x="1116.1209" y="-184.35294" width="127.57501" height="56" stroke="#dfdfdf" stroke-linecap="round" stroke-linejoin="round" stroke-width="2" clip-path="url(#inner_stroke_clip_path_6)"/>
            <text transform="translate(1167.1209 -170.35294)" fill="#212121">
              <tspan font-family="Roboto" font-size="12" fill="#212121" x="0" y="11">Persistent</tspan>
              <tspan font-family="Roboto" font-size="12" fill="#212121" x="0" y="25">Disk</tspan>
            </text>
          </g>
          <g id="Group_1006">
            <g id="Group_670">
              <title>Graphic_120</title>
              <g id="Graphic_671">
                <path d="M 1152.2334 -153.76544 L 1152.2334 -148.04044 L 1137.1209 -148.04044 L 1137.1209 -143.35294 L 1156.9209 -143.35294 L 1156.9209 -153.76544 Z" fill="#4285f4"/>
              </g>
            </g>
            <g id="Group_668">
              <title>Graphic_118</title>
              <g id="Graphic_669">
                <path d="M 1141.8084 -157.94044 L 1141.8084 -163.66544 L 1156.9209 -163.66544 L 1156.9209 -168.35294 L 1137.1209 -168.35294 L 1137.1209 -157.94044 Z" fill="#aecbfa"/>
              </g>
            </g>
            <g id="Group_666">
              <title>Graphic_116</title>
              <g id="Graphic_667">
                <path d="M 1144.4209 -161.06544 L 1144.4209 -155.32794 L 1137.1209 -155.32794 L 1137.1209 -150.64044 L 1149.6209 -150.64044 L 1149.6209 -156.37794 L 1156.9209 -156.37794 L 1156.9209 -161.06544 Z" fill="#669df6"/>
              </g>
            </g>
          </g>
        </g>
        <g id="Group_1021">
          <g id="Graphic_1019">
            <rect x="1116.1209" y="-32.35294" width="127.57501" height="56" fill="white"/>
            <rect x="1116.1209" y="-32.35294" width="127.57501" height="56" stroke="#dfdfdf" stroke-linecap="round" stroke-linejoin="round" stroke-width="2" clip-path="url(#inner_stroke_clip_path_7)"/>
            <text transform="translate(1167.1209 -18.35294)" fill="#212121">
              <tspan font-family="Roboto" font-size="12" fill="#212121" x="0" y="11">Cloud</tspan>
              <tspan font-family="Roboto" font-size="12" fill="#212121" x="0" y="25">Operations</tspan>
            </text>
          </g>
          <g id="Group_1020">
            <g id="Group_660">
              <title>Graphic_108</title>
              <g id="Graphic_661">
                <path d="M 1146.0211 -5.156591 L 1151.6328 -14.80104 L 1140.5611 -14.80104 L 1135.0209 -5.156591 Z" fill="#aecbfa"/>
              </g>
            </g>
            <g id="Group_658">
              <title>Graphic_106</title>
              <g id="Graphic_659">
                <path d="M 1135.0209 -3.549281 L 1140.5409 6.095159 L 1151.6126 6.095159 L 1146.0926 -3.549281 Z" fill="#4285f4"/>
              </g>
            </g>
            <g id="Group_656">
              <title>Graphic_104</title>
              <g id="Graphic_657">
                <path d="M 1159.0209 -4.352941 L 1153.4824 -14.03314 L 1147.937 -4.352941 L 1153.4824 5.327859 Z" fill="#669df6"/>
              </g>
            </g>
          </g>
        </g>
        <g id="Group_2702">
          <g id="Graphic_1896">
            <text transform="translate(752.8659 108.94706)" fill="#757575">
              <tspan font-family="Roboto" font-size="10" fill="#757575" x="0" y="9">Autopilot: GKE managed</tspan>
              <tspan font-family="Roboto" font-size="10" fill="#757575" x="0" y="21">Standard: User-managed</tspan>
            </text>
          </g>
          <g id="Group_1640">
            <title>Graphic_283</title>
            <g id="Graphic_1642">
              <rect x="719.6659" y="110.44706" width="20" height="20" fill="#fef7e0"/>
            </g>
            <g id="Graphic_1641">
              <rect x="719.6659" y="110.44706" width="20" height="20" stroke="#d6d6d6" stroke-linecap="round" stroke-linejoin="round" stroke-width="1"/>
            </g>
          </g>
          <g id="Group_1635">
            <title>Graphic_278</title>
            <g id="Graphic_1637">
              <rect x="598.8111" y="110.44706" width="20" height="20" fill="#e1f6fe"/>
            </g>
            <g id="Graphic_1636">
              <rect x="598.8111" y="110.44706" width="20" height="20" stroke="#d6d6d6" stroke-linecap="round" stroke-linejoin="round" stroke-width="1"/>
            </g>
          </g>
          <g id="Graphic_1895">
            <text transform="translate(632.0111 114.94706)" fill="#757575">
              <tspan font-family="Roboto" font-size="10" fill="#757575" x="0" y="9">GKE managed</tspan>
            </text>
          </g>
        </g>
        <g id="Graphic_2713">
          <path d="M 522.797 -189.05294 L 522.797 -147.95294 C 522.797 -147.6768 523.02086 -147.45294 523.297 -147.45294 C 523.57315 -147.45294 523.797 -147.6768 523.797 -147.95294 L 523.797 -189.05294 C 523.797 -189.32908 523.57315 -189.55294 523.297 -189.55294 C 523.02086 -189.55294 522.797 -189.32908 522.797 -189.05294 Z M 523.797 -139.95294 L 523.797 -147.95294 L 522.797 -147.95294 L 522.797 -139.95294 Z M 526.94345 -144.3065 L 522.94345 -140.3065 L 523.65056 -140.3065 L 519.65056 -144.3065 L 518.94345 -143.59939 L 522.94345 -139.59939 L 523.297 -139.24583 L 523.65056 -139.59939 L 527.65056 -143.59939 Z" fill="#616161"/>
        </g>
        <g id="Graphic_2714">
          <path d="M 570.8488 -109.55294 L 620.9452 -109.55294 C 621.2214 -109.55294 621.4452 -109.7768 621.4452 -110.05294 C 621.4452 -110.32908 621.2214 -110.55294 620.9452 -110.55294 L 570.8488 -110.55294 C 570.57264 -110.55294 570.3488 -110.32908 570.3488 -110.05294 C 570.3488 -109.7768 570.57264 -109.55294 570.8488 -109.55294 Z M 628.9452 -110.55294 L 620.9452 -110.55294 L 620.9452 -109.55294 L 628.9452 -109.55294 Z M 624.5917 -113.69939 L 628.5917 -109.69939 L 628.5917 -110.4065 L 624.5917 -106.4065 L 625.2988 -105.69939 L 629.2988 -109.69939 L 629.65234 -110.05294 L 629.2988 -110.4065 L 625.2988 -114.4065 Z" fill="#616161"/>
        </g>
        <g id="Graphic_2715">
          <path d="M 745.9488 -217.55294 L 678.397 -217.55294 C 678.1209 -217.55294 677.897 -217.32908 677.897 -217.05294 L 677.897 -147.95294 C 677.897 -147.6768 678.1209 -147.45294 678.397 -147.45294 C 678.67316 -147.45294 678.897 -147.6768 678.897 -147.95294 L 678.897 -217.05294 L 678.397 -216.55294 L 745.9488 -216.55294 C 746.2249 -216.55294 746.4488 -216.7768 746.4488 -217.05294 C 746.4488 -217.32908 746.2249 -217.55294 745.9488 -217.55294 Z M 678.897 -139.95294 L 678.897 -147.95294 L 677.897 -147.95294 L 677.897 -139.95294 Z M 682.0435 -144.3065 L 678.0435 -140.3065 L 678.7506 -140.3065 L 674.7506 -144.3065 L 674.0435 -143.59939 L 678.0435 -139.59939 L 678.397 -139.24583 L 678.7506 -139.59939 L 682.7506 -143.59939 Z" fill="#616161"/>
        </g>
        <g id="Graphic_2716">
          <path d="M 745.9488 -110.55294 L 735.8488 -110.55294 C 735.57265 -110.55294 735.3488 -110.32908 735.3488 -110.05294 C 735.3488 -109.7768 735.57265 -109.55294 735.8488 -109.55294 L 745.9488 -109.55294 C 746.2249 -109.55294 746.4488 -109.7768 746.4488 -110.05294 C 746.4488 -110.32908 746.2249 -110.55294 745.9488 -110.55294 Z M 727.8488 -109.55294 L 735.8488 -109.55294 L 735.8488 -110.55294 L 727.8488 -110.55294 Z M 732.20235 -106.4065 L 728.20235 -110.4065 L 728.20235 -109.69939 L 732.20235 -113.69939 L 731.4952 -114.4065 L 727.4952 -110.4065 L 727.1417 -110.05294 L 727.4952 -109.69939 L 731.4952 -105.69939 Z" fill="#616161"/>
        </g>
        <g id="Graphic_2717">
          <path d="M 677.897 -82.05294 L 677.897 -3.0529405 C 677.897 -2.776798 678.1209 -2.5529405 678.397 -2.5529405 L 736.0488 -2.5529405 C 736.3249 -2.5529405 736.5488 -2.776798 736.5488 -3.0529405 C 736.5488 -3.329083 736.3249 -3.5529405 736.0488 -3.5529405 L 678.397 -3.5529405 L 678.897 -3.0529405 L 678.897 -82.05294 C 678.897 -82.32908 678.67316 -82.55294 678.397 -82.55294 C 678.1209 -82.55294 677.897 -82.32908 677.897 -82.05294 Z M 744.0488 -3.5529405 L 736.0488 -3.5529405 L 736.0488 -2.5529405 L 744.0488 -2.5529405 Z M 739.6952 -6.699387 L 743.6952 -2.699387 L 743.6952 -3.406494 L 739.6952 .5935061 L 740.40235 1.3006129 L 744.40235 -2.699387 L 744.7559 -3.0529405 L 744.40235 -3.406494 L 740.40235 -7.406494 Z" fill="#616161"/>
        </g>
        <g id="Group_1055">
          <g id="Graphic_1054">
            <rect x="475.7452" y="-245.05294" width="95.10356" height="56" fill="white"/>
            <rect x="475.7452" y="-245.05294" width="95.10356" height="56" stroke="#dfdfdf" stroke-linecap="round" stroke-linejoin="round" stroke-width="2" clip-path="url(#inner_stroke_clip_path_8)"/>
            <text transform="translate(516.7452 -224.05294)" fill="#212121">
              <tspan font-family="Roboto" font-size="12" fill="#212121" x="0" y="11">User</tspan>
            </text>
          </g>
          <g id="Group_612">
            <title>Graphic_56</title>
            <g id="Graphic_613">
              <path d="M 500.7452 -218.05294 C 503.2315 -218.05294 505.2452 -220.06668 505.2452 -222.55294 C 505.2452 -225.03918 503.2315 -227.05294 500.7452 -227.05294 C 498.259 -227.05294 496.2452 -225.03918 496.2452 -222.55294 C 496.2452 -220.06668 498.259 -218.05294 500.7452 -218.05294 Z M 500.7452 -215.80294 C 497.7415 -215.80294 491.7452 -214.29544 491.7452 -211.30294 L 491.7452 -209.05294 L 509.7452 -209.05294 L 509.7452 -211.30294 C 509.7452 -214.29544 503.749 -215.80294 500.7452 -215.80294 Z" fill="#616161"/>
            </g>
          </g>
        </g>
        <g id="Group_842">
          <g id="Graphic_822">
            <rect x="745.9488" y="-138.05294" width="126" height="56" fill="white"/>
            <rect x="745.9488" y="-138.05294" width="126" height="56" stroke="#dfdfdf" stroke-linecap="round" stroke-linejoin="round" stroke-width="2" clip-path="url(#inner_stroke_clip_path_9)"/>
            <text transform="translate(796.9488 -117.05294)" fill="#212121">
              <tspan font-family="Roboto" font-size="12" fill="#212121" x="0" y="11">Scheduler</tspan>
            </text>
          </g>
          <g id="Group_823">
            <g id="Group_600">
              <title>Graphic_42</title>
              <g id="Graphic_601">
                <path d="M 786.0883 -98.05296 C 785.7558 -98.05436 785.4371 -98.18636 785.2011 -98.42056 L 782.6662 -100.95541 C 782.2355 -101.45826 782.2645 -102.20786 782.7327 -102.67606 C 783.2008 -103.14416 783.9504 -103.17316 784.4533 -102.7425 L 786.9882 -100.20762 C 787.4796 -99.71326 787.4796 -98.91486 786.9882 -98.42056 C 786.749 -98.18326 786.4252 -98.05106 786.0883 -98.05296 Z" fill="#669df6"/>
              </g>
            </g>
            <g id="Group_598">
              <title>Graphic_40</title>
              <g id="Graphic_599">
                <path d="M 765.8092 -98.05296 C 765.2966 -98.05512 764.8358 -98.36586 764.6416 -98.84026 C 764.4474 -99.31466 764.5581 -99.85932 764.922 -100.2203 L 767.4569 -102.75516 C 767.6949 -102.99512 768.0189 -103.13006 768.3568 -103.13006 C 768.6947 -103.13006 769.0187 -102.99512 769.2567 -102.75516 C 769.7481 -102.26086 769.7481 -101.46246 769.2567 -100.96806 L 766.7218 -98.43321 C 766.4816 -98.18816 766.1524 -98.05096 765.8092 -98.05296 Z" fill="#669df6"/>
              </g>
            </g>
            <g id="Group_596">
              <title>Graphic_38</title>
              <g id="Graphic_597">
                <path d="M 767.6724 -102.95796 L 766.1261 -101.41166 C 766.6712 -100.76316 767.2735 -100.16506 767.9259 -99.6246 L 769.4721 -101.17086 Z" fill="#4285f4"/>
              </g>
            </g>
            <g id="Group_594">
              <title>Graphic_36</title>
              <g id="Graphic_595">
                <path d="M 785.7461 -101.46236 L 784.4786 -102.72986 C 784.3898 -102.80866 784.2919 -102.87676 784.1871 -102.93262 L 782.4888 -101.23426 C 782.5446 -101.12946 782.6127 -101.03156 782.6915 -100.94276 L 783.959 -99.6753 C 784.6069 -100.21636 785.205 -100.81442 785.7461 -101.46236 Z" fill="#4285f4"/>
              </g>
            </g>
            <g id="Group_592">
              <title>Graphic_34</title>
              <g id="Graphic_593">
                <path d="M 775.9488 -98.05296 C 769.6489 -98.05296 764.5418 -103.16006 764.5418 -109.45995 C 764.5418 -115.7598 769.6489 -120.86684 775.9488 -120.86684 C 782.2487 -120.86684 787.3557 -115.7598 787.3557 -109.45995 C 787.3557 -106.43461 786.1539 -103.53321 784.0147 -101.394 C 781.8755 -99.25476 778.9741 -98.05296 775.9488 -98.05296 Z M 775.9488 -100.58786 C 780.8487 -100.58786 784.8208 -104.56002 784.8208 -109.45995 C 784.8208 -114.35985 780.8487 -118.332 775.9488 -118.332 C 771.0489 -118.332 767.0767 -114.35985 767.0767 -109.45995 C 767.0767 -104.56002 771.0489 -100.58786 775.9488 -100.58786 Z" fill="#669df6"/>
              </g>
            </g>
            <g id="Group_590">
              <title>Graphic_32</title>
              <g id="Graphic_591">
                <path d="M 775.9488 -103.12276 C 779.4487 -103.12276 782.286 -105.95995 782.286 -109.45995 C 782.286 -112.95985 779.4487 -115.79715 775.9488 -115.79715 L 775.9488 -109.45995 L 770.7776 -105.77166 C 771.9712 -104.10396 773.898 -103.11696 775.9488 -103.12276 Z" fill="#4285f4"/>
              </g>
            </g>
            <g id="Group_588">
              <title>Graphic_28</title>
              <g id="Graphic_589">
                <path d="M 765.8092 -116.97585 C 765.2943 -116.97285 764.8288 -117.28164 764.6313 -117.75724 C 764.4339 -118.2328 764.5438 -118.78054 764.9094 -119.14314 L 767.4442 -121.67804 C 767.6822 -121.91794 768.0062 -122.05294 768.3441 -122.05294 C 768.6821 -122.05294 769.006 -121.91794 769.244 -121.67804 C 769.7354 -121.18368 769.7354 -120.38529 769.244 -119.89094 L 766.7091 -117.35604 C 766.472 -117.11414 766.148 -116.97725 765.8092 -116.97585 Z" fill="#aecbfa"/>
              </g>
            </g>
            <g id="Group_586">
              <title>Graphic_26</title>
              <g id="Graphic_587">
                <path d="M 786.0883 -116.97585 C 785.7496 -116.97725 785.4255 -117.11414 785.1884 -117.35604 L 782.6535 -119.89094 C 782.1621 -120.38529 782.1621 -121.18368 782.6535 -121.67804 C 782.8915 -121.91794 783.2155 -122.05294 783.5534 -122.05294 C 783.8913 -122.05294 784.2153 -121.91794 784.4533 -121.67804 L 786.9882 -119.14314 C 787.3538 -118.78054 787.4637 -118.2328 787.2662 -117.75724 C 787.0687 -117.28164 786.6032 -116.97285 786.0883 -116.97585 Z" fill="#aecbfa"/>
              </g>
            </g>
          </g>
        </g>
        <g id="Group_1060">
          <g id="Graphic_1059">
            <rect x="475.7452" y="-138.05294" width="95.10356" height="56" fill="white"/>
            <rect x="475.7452" y="-138.05294" width="95.10356" height="56" stroke="#dfdfdf" stroke-linecap="round" stroke-linejoin="round" stroke-width="2" clip-path="url(#inner_stroke_clip_path_10)"/>
            <text transform="translate(516.7452 -117.05294)" fill="#212121">
              <tspan font-family="Roboto" font-size="12" fill="#212121" x="0" y="11">kubectl</tspan>
            </text>
          </g>
          <g id="Group_580">
            <title>Graphic_18</title>
            <g id="Graphic_581">
              <path d="M 505.7452 -107.05294 L 501.7452 -111.05294 L 501.7452 -114.23294 C 502.9052 -114.65294 503.7452 -115.75294 503.7452 -117.05294 C 503.7452 -118.71294 502.4052 -120.05294 500.7452 -120.05294 C 499.0852 -120.05294 497.7452 -118.71294 497.7452 -117.05294 C 497.7452 -115.75294 498.5852 -114.65294 499.7452 -114.23294 L 499.7452 -111.05294 L 495.7452 -107.05294 L 491.7452 -107.05294 L 491.7452 -102.05294 L 496.7452 -102.05294 L 496.7452 -105.10294 L 500.7452 -109.30294 L 504.7452 -105.10294 L 504.7452 -102.05294 L 509.7452 -102.05294 L 509.7452 -107.05294 Z" fill="#616161"/>
            </g>
          </g>
        </g>
        <g id="Group_817">
          <g id="Graphic_811">
            <rect x="745.9488" y="-245.05294" width="126" height="56" fill="white"/>
            <rect x="745.9488" y="-245.05294" width="126" height="56" stroke="#dfdfdf" stroke-linecap="round" stroke-linejoin="round" stroke-width="2" clip-path="url(#inner_stroke_clip_path_11)"/>
            <text transform="translate(796.9488 -231.05294)" fill="#212121">
              <tspan font-family="Roboto" font-size="12" fill="#212121" x="0" y="11">Resource</tspan>
              <tspan font-family="Roboto" font-size="12" fill="#212121" x="0" y="25">Controllers</tspan>
            </text>
          </g>
          <g id="Group_813">
            <title>Shape</title>
            <g id="Graphic_815">
              <path d="M 775.9488 -229.55294 L 765.6821 -225.27794 L 765.6821 -218.2446 C 765.6821 -211.91127 770.0655 -205.98627 775.9488 -204.55294 C 781.8321 -205.98627 786.2155 -211.91127 786.2155 -218.2446 L 786.2155 -225.27794 Z M 775.9488 -224.8196 C 777.5147 -224.8204 778.8632 -223.7153 779.1701 -222.17977 C 779.477 -220.64426 778.65685 -219.1057 777.211 -218.50454 C 775.7651 -217.90338 774.0959 -218.40693 773.2236 -219.7074 C 772.3514 -221.00788 772.5189 -222.7433 773.6238 -223.85294 C 774.2395 -224.47134 775.0761 -224.81917 775.9488 -224.8196 Z M 781.0821 -210.88627 C 779.78205 -209.17217 777.9919 -207.8935 775.9488 -207.2196 C 773.9057 -207.8935 772.1155 -209.17217 770.8155 -210.88627 L 770.8155 -213.7196 C 770.8155 -215.8196 774.2321 -216.87794 775.9488 -216.87794 C 777.6655 -216.87794 781.0821 -215.8196 781.0821 -213.7196 L 781.0821 -210.88627 Z" fill="#669df6"/>
            </g>
            <g id="Graphic_814">
              <path d="M 775.9488 -229.55294 L 775.9488 -224.8196 C 777.7002 -224.7314 779.0749 -223.2857 779.0749 -221.5321 C 779.0749 -219.77852 777.7002 -218.3328 775.9488 -218.2446 L 775.9488 -216.8446 C 777.6655 -216.8446 781.0821 -215.78627 781.0821 -213.68627 L 781.0821 -210.88627 C 779.78205 -209.17217 777.9919 -207.8935 775.9488 -207.2196 L 775.9488 -204.55294 C 781.8321 -205.98627 786.2155 -211.91127 786.2155 -218.2446 L 786.2155 -225.27794 Z" fill="#4285f4"/>
            </g>
          </g>
        </g>
        <g id="Group_1078">
          <g id="Graphic_824">
            <rect x="745.9488" y="-31.05294" width="126" height="56" fill="white"/>
            <rect x="745.9488" y="-31.05294" width="126" height="56" stroke="#dfdfdf" stroke-linecap="round" stroke-linejoin="round" stroke-width="2" clip-path="url(#inner_stroke_clip_path_12)"/>
            <text transform="translate(796.9488 -10.05294)" fill="#212121">
              <tspan font-family="Roboto" font-size="12" fill="#212121" x="0" y="11">Storage</tspan>
            </text>
          </g>
          <g id="Group_886">
            <g id="Group_847">
              <title>Graphic_86</title>
              <g id="Graphic_848">
                <rect x="763.9488" y="-12.65294" width="24" height="8.4" fill="#aecbfa"/>
              </g>
            </g>
            <g id="Group_849">
              <title>Graphic_84</title>
              <g id="Graphic_850">
                <rect x="785.5488" y="-12.65294" width="2.4" height="8.4" fill="#669df6"/>
              </g>
            </g>
            <g id="Group_851">
              <title>Graphic_82</title>
              <g id="Graphic_852">
                <path d="M 787.9488 -12.65294 L 785.5488 -12.65294 L 785.5488 -4.2529405 Z" fill="#4285f4"/>
              </g>
            </g>
            <g id="Group_853">
              <title>Graphic_80</title>
              <g id="Graphic_854">
                <rect x="763.9488" y="-12.65294" width="2.4" height="8.4" fill="#669df6"/>
              </g>
            </g>
            <g id="Group_855">
              <title>Graphic_78</title>
              <g id="Graphic_856">
                <rect x="768.7488" y="-9.05294" width="7.2" height="1.2" fill="white"/>
              </g>
            </g>
            <g id="Group_857">
              <title>Graphic_76</title>
              <g id="Graphic_858">
                <path d="M 781.0488 -10.25294 L 781.6488 -10.25294 C 782.4772 -10.25294 783.1488 -9.58134 783.1488 -8.75294 L 783.1488 -8.152941 C 783.1488 -7.3245405 782.4772 -6.6529405 781.6488 -6.6529405 L 781.0488 -6.6529405 C 780.2203 -6.6529405 779.5488 -7.3245405 779.5488 -8.152941 L 779.5488 -8.75294 C 779.5488 -9.58134 780.2203 -10.25294 781.0488 -10.25294 Z" fill="white"/>
              </g>
            </g>
            <g id="Group_859">
              <title>Graphic_74</title>
              <g id="Graphic_860">
                <rect x="763.9488" y="-1.8529405" width="24" height="8.4" fill="#aecbfa"/>
              </g>
            </g>
            <g id="Group_861">
              <title>Graphic_72</title>
              <g id="Graphic_862">
                <rect x="785.5488" y="-1.8529405" width="2.4" height="8.4" fill="#669df6"/>
              </g>
            </g>
            <g id="Group_863">
              <title>Graphic_70</title>
              <g id="Graphic_864">
                <path d="M 787.9488 -1.8529405 L 785.5488 -1.8529405 L 785.5488 6.5470595 Z" fill="#4285f4"/>
              </g>
            </g>
            <g id="Group_865">
              <title>Graphic_68</title>
              <g id="Graphic_866">
                <rect x="763.9488" y="-1.8529405" width="2.4" height="8.4" fill="#669df6"/>
              </g>
            </g>
            <g id="Group_867">
              <title>Graphic_66</title>
              <g id="Graphic_868">
                <rect x="768.7488" y="1.7470595" width="7.2" height="1.2" fill="white"/>
              </g>
            </g>
            <g id="Group_869">
              <title>Graphic_64</title>
              <g id="Graphic_870">
                <path d="M 781.0488 .5470595 L 781.6488 .5470595 C 782.4772 .5470595 783.1488 1.2186595 783.1488 2.0470595 L 783.1488 2.6470595 C 783.1488 3.4754595 782.4772 4.1470595 781.6488 4.1470595 L 781.0488 4.1470595 C 780.2203 4.1470595 779.5488 3.4754595 779.5488 2.6470595 L 779.5488 2.0470595 C 779.5488 1.2186595 780.2203 .5470595 781.0488 .5470595 Z" fill="white"/>
              </g>
            </g>
          </g>
        </g>
        <g id="Group_1068">
          <g id="Graphic_1064">
            <rect x="630.8452" y="-138.05294" width="95.10356" height="56" fill="white"/>
            <rect x="630.8452" y="-138.05294" width="95.10356" height="56" stroke="#dfdfdf" stroke-linecap="round" stroke-linejoin="round" stroke-width="2" clip-path="url(#inner_stroke_clip_path_13)"/>
            <text transform="translate(671.8452 -124.05294)" fill="#212121">
              <tspan font-family="Roboto" font-size="12" fill="#212121" x="0" y="11">API</tspan>
              <tspan font-family="Roboto" font-size="12" fill="#212121" x="0" y="25">Server</tspan>
            </text>
          </g>
          <g id="Graphic_1066">
            <path d="M 655.8452 -115.55294 L 655.8452 -119.15294 L 646.8452 -119.15294 L 646.8452 -102.95294 L 664.8452 -102.95294 L 664.8452 -115.55294 Z M 650.4452 -104.75294 L 648.6452 -104.75294 L 648.6452 -106.55294 L 650.4452 -106.55294 Z M 650.4452 -108.35294 L 648.6452 -108.35294 L 648.6452 -110.15294 L 650.4452 -110.15294 Z M 650.4452 -111.95294 L 648.6452 -111.95294 L 648.6452 -113.75294 L 650.4452 -113.75294 Z M 650.4452 -115.55294 L 648.6452 -115.55294 L 648.6452 -117.35294 L 650.4452 -117.35294 Z M 654.0452 -104.75294 L 652.2452 -104.75294 L 652.2452 -106.55294 L 654.0452 -106.55294 Z M 654.0452 -108.35294 L 652.2452 -108.35294 L 652.2452 -110.15294 L 654.0452 -110.15294 Z M 654.0452 -111.95294 L 652.2452 -111.95294 L 652.2452 -113.75294 L 654.0452 -113.75294 Z M 654.0452 -115.55294 L 652.2452 -115.55294 L 652.2452 -117.35294 L 654.0452 -117.35294 Z M 663.0452 -104.75294 L 655.8452 -104.75294 L 655.8452 -106.55294 L 657.6452 -106.55294 L 657.6452 -108.35294 L 655.8452 -108.35294 L 655.8452 -110.15294 L 657.6452 -110.15294 L 657.6452 -111.95294 L 655.8452 -111.95294 L 655.8452 -113.75294 L 663.0452 -113.75294 Z M 661.2452 -111.95294 L 659.4452 -111.95294 L 659.4452 -110.15294 L 661.2452 -110.15294 Z M 661.2452 -108.35294 L 659.4452 -108.35294 L 659.4452 -106.55294 L 661.2452 -106.55294 Z" fill="#616161"/>
          </g>
        </g>
      </g>
    </g>
  </g>
</svg>
